<svg width="25" height="25" viewBox="0 0 25 25" fill="none" xmlns="http://www.w3.org/2000/svg">
<path d="M21.018 13.279C18.1577 14.4334 15.1013 15.0239 12.0169 15.0181C8.83386 15.016 5.79727 14.394 3.018 13.2672M12.0188 12.0181L12.0288 12.0181M16.0228 6.02074L16.0241 4.02074C16.0244 3.49031 15.814 2.98146 15.4392 2.60614C15.0644 2.23082 14.5558 2.01977 14.0254 2.01943L10.0254 2.0168C9.49496 2.01645 8.98611 2.22683 8.61079 2.60166C8.23547 2.97649 8.02443 3.48506 8.02408 4.01549L8.02276 6.01549L16.0228 6.02074ZM5.01358 20.0135L19.0136 20.0227C19.544 20.0231 20.0529 19.8127 20.4282 19.4378C20.8035 19.063 21.0145 18.5545 21.0149 18.024L21.0214 8.02402C21.0218 7.49359 20.8114 6.98474 20.4366 6.60942C20.0618 6.2341 19.5532 6.02305 19.0228 6.02271L5.02277 6.01352C4.49233 6.01317 3.98349 6.22355 3.60817 6.59838C3.23285 6.9732 3.0218 7.48177 3.02145 8.01221L3.01489 18.0122C3.01454 18.5426 3.22492 19.0515 3.59975 19.4268C3.97457 19.8021 4.48314 20.0132 5.01358 20.0135Z" stroke="#7C8493" stroke-width="2" stroke-linecap="round" stroke-linejoin="round"/>
</svg>
