<svg width="25" height="25" viewBox="0 0 25 25" fill="none" xmlns="http://www.w3.org/2000/svg">
<path d="M9.06055 5.0163L7.06055 5.01498C6.53011 5.01464 6.02127 5.22502 5.64595 5.59984C5.27063 5.97467 5.05958 6.48324 5.05923 7.01367L5.05136 19.0137C5.05101 19.5441 5.26139 20.0529 5.63622 20.4283C6.01104 20.8036 6.51961 21.0146 7.05005 21.015L17.05 21.0215C17.5805 21.0219 18.0893 20.8115 18.4646 20.4367C18.84 20.0619 19.051 19.5533 19.0514 19.0229L19.0592 7.02286C19.0596 6.49243 18.8492 5.98358 18.4744 5.60826C18.0995 5.23294 17.591 5.0219 17.0605 5.02155L15.0605 5.02023" stroke="#7C8493" stroke-width="2" stroke-linecap="round" stroke-linejoin="round"/>
<path d="M13.0615 3.01874L11.0615 3.01743C9.95695 3.0167 9.06094 3.91154 9.06021 5.01611C9.05949 6.12068 9.95433 7.0167 11.0589 7.01743L13.0589 7.01874C14.1635 7.01946 15.0595 6.12462 15.0602 5.02005C15.0609 3.91548 14.1661 3.01946 13.0615 3.01874Z" stroke="#7C8493" stroke-width="2" stroke-linecap="round" stroke-linejoin="round"/>
<path d="M9.05566 12.0161L9.06566 12.0161" stroke="#7C8493" stroke-width="2" stroke-linecap="round" stroke-linejoin="round"/>
<path d="M13.0557 12.0186L15.0557 12.0199" stroke="#7C8493" stroke-width="2" stroke-linecap="round" stroke-linejoin="round"/>
<path d="M9.05273 16.0161L9.06273 16.0161" stroke="#7C8493" stroke-width="2" stroke-linecap="round" stroke-linejoin="round"/>
<path d="M13.0527 16.0186L15.0527 16.0199" stroke="#7C8493" stroke-width="2" stroke-linecap="round" stroke-linejoin="round"/>
</svg>
