<svg width="24" height="24" viewBox="0 0 24 24" fill="none" xmlns="http://www.w3.org/2000/svg">
<path d="M6.22169 2.50589C6.22169 3.62154 5.33424 4.51179 4.25684 4.51179C3.17944 4.51179 2.29199 3.62153 2.29199 2.50589C2.29199 1.39025 3.17944 0.5 4.25684 0.5C5.33424 0.5 6.22169 1.39025 6.22169 2.50589Z" fill="#616A6A" stroke="#7C8493"/>
<path d="M0 9.96001H8.51368C8.51368 7.56991 6.60784 5.63232 4.25687 5.63232C1.90585 5.63228 0 7.56986 0 9.96001Z" fill="#616A6A"/>
<path d="M19.7432 19.0518C21.1045 19.0518 22.208 17.9299 22.208 16.5459C22.208 15.162 21.1045 14.04 19.7432 14.04C18.3819 14.04 17.2783 15.162 17.2783 16.5459C17.2783 17.9299 18.3819 19.0518 19.7432 19.0518Z" fill="#616A6A"/>
<path d="M19.7431 19.6724C17.3922 19.6724 15.4863 21.6099 15.4863 24.0001H24C24 21.6099 22.0941 19.6724 19.7431 19.6724Z" fill="#616A6A"/>
<path d="M5.37012 11.8037H3.87012V17.2734H15.4413V15.7734H5.37012V11.8037Z" fill="#616A6A"/>
</svg>
