<svg width="24" height="24" viewBox="0 0 24 24" fill="none" xmlns="http://www.w3.org/2000/svg">
<path d="M21.1131 9.40477L21.1365 9.52062L21.2092 9.61377C21.212 9.61735 21.2147 9.62102 21.2173 9.62478C21.2244 9.65365 21.227 9.6835 21.2251 9.7133C21.2225 9.75353 21.2117 9.79278 21.1932 9.82862L21.1515 9.90979L21.141 10.0005C21.127 10.1227 21.0976 10.2427 21.0534 10.3575C20.8892 10.7293 20.6526 11.0647 20.3574 11.3441C20.0597 11.6258 19.7084 11.8449 19.3245 11.9884L18.9995 12.1098V12.4567V20.25C18.9995 20.3163 18.9732 20.3799 18.9263 20.4268C18.8794 20.4737 18.8158 20.5 18.7495 20.5H5.24953C5.18323 20.5 5.11964 20.4737 5.07275 20.4268C5.02587 20.3799 4.99953 20.3163 4.99953 20.25V12.4567V12.11L4.67478 11.9885C4.2909 11.8448 3.93977 11.6256 3.64219 11.3437C3.34692 11.064 3.11033 10.7284 2.9462 10.3563C2.79906 9.9768 2.79918 9.55594 2.94656 9.17648L5.02004 4.4C5.02009 4.39989 5.02013 4.39978 5.02018 4.39967C5.03966 4.35521 5.07167 4.31738 5.11229 4.2908C5.15301 4.26416 5.20062 4.24998 5.24929 4.25H5.24953L18.7495 4.25L18.7498 4.25C18.7984 4.24998 18.8461 4.26416 18.8868 4.2908C18.9273 4.31733 18.9593 4.35507 18.9788 4.39941C18.9788 4.39961 18.9789 4.3998 18.979 4.4L21.0402 9.14745L21.0411 9.14962L21.049 9.16803C21.0755 9.24545 21.097 9.32453 21.1131 9.40477ZM17.9995 20H18.4995V19.5V12.75V12.2437L17.9933 12.25C17.4979 12.2562 17.0072 12.1541 16.5554 11.9508C16.1036 11.7475 15.7018 11.448 15.3779 11.0731L15.0039 10.6402L14.6249 11.0688C14.2961 11.4408 13.892 11.7386 13.4394 11.9426C12.9868 12.1466 12.496 12.2521 11.9995 12.2521C11.5031 12.2521 11.0123 12.1466 10.5597 11.9426C10.1071 11.7386 9.70295 11.4408 9.37413 11.0688L8.9952 10.6402L8.62118 11.0731C8.29731 11.448 7.89542 11.7475 7.44366 11.9508C6.99189 12.1541 6.50116 12.2562 6.0058 12.25L5.49953 12.2437V12.75V19.5V20H5.99953H17.9995ZM20.5781 10.1928L20.5911 10.1659L20.6008 10.1378C20.6905 9.8771 20.683 9.59279 20.5795 9.33728L20.5796 9.33722L20.5746 9.32565L18.7161 5.05065L18.5854 4.75H18.2575H5.74153H5.41387L5.28309 5.05043L3.41259 9.34718L3.40639 9.36141L3.40109 9.376C3.31075 9.62463 3.31075 9.89712 3.40109 10.1458L3.40981 10.1698L3.42094 10.1928C3.65534 10.6773 4.0262 11.0827 4.48793 11.3593C4.94096 11.6307 5.46211 11.7664 5.98954 11.7507C6.65557 11.7969 7.31424 11.5843 7.82773 11.1563C8.34907 10.7219 8.67915 10.1002 8.74702 9.425L8.74953 9.40007V9.375C8.74953 9.3087 8.77587 9.24511 8.82275 9.19822C8.86964 9.15134 8.93323 9.125 8.99953 9.125C9.06583 9.125 9.12942 9.15134 9.17631 9.19822C9.22319 9.24511 9.24953 9.3087 9.24953 9.375V9.40007L9.25204 9.425C9.31991 10.1002 9.64999 10.7219 10.1713 11.1563C10.6823 11.5821 11.3369 11.7948 11.9995 11.7513C12.6622 11.7948 13.3168 11.5821 13.8277 11.1563C14.3491 10.7219 14.6792 10.1002 14.747 9.42501L14.7495 9.40007V9.375C14.7495 9.30869 14.7759 9.24511 14.8228 9.19822C14.8696 9.15134 14.9332 9.125 14.9995 9.125C15.0658 9.125 15.1294 9.15134 15.1763 9.19822L15.5299 8.84467L15.1763 9.19822C15.2232 9.24511 15.2495 9.30869 15.2495 9.375V9.40007L15.252 9.42501C15.3199 10.1002 15.65 10.7219 16.1713 11.1563C16.6848 11.5843 17.3435 11.7969 18.0095 11.7507C18.537 11.7664 19.0581 11.6307 19.5111 11.3593C19.9729 11.0827 20.3437 10.6773 20.5781 10.1928ZM12.1319 18.6205L12.3667 19L12.1318 18.6205C12.0923 18.645 12.0468 18.658 12.0003 18.658C11.9538 18.658 11.9082 18.645 11.8687 18.6205L11.6338 19L11.8687 18.6205C11.8292 18.5961 11.7973 18.5611 11.7765 18.5195L11.7762 18.5189L10.5764 16.1193C10.4527 15.8714 10.3888 15.5979 10.3899 15.3208C10.3909 15.0437 10.4568 14.7708 10.5823 14.5237L10.5823 14.5238L10.5847 14.5189C10.6935 14.299 10.853 14.1082 11.05 13.9622C11.2468 13.8164 11.4753 13.7194 11.7168 13.6793C11.9044 13.6494 12.0956 13.6494 12.2832 13.6793C12.5249 13.7193 12.7535 13.8161 12.9504 13.9619C13.1475 14.108 13.3071 14.2988 13.4158 14.5188L13.4158 14.5188L13.4183 14.5239C13.5439 14.7708 13.6099 15.0438 13.6109 15.3208C13.6119 15.5979 13.548 15.8713 13.4242 16.1191L12.2243 18.5189L12.224 18.5195C12.2033 18.5611 12.1714 18.5961 12.1319 18.6205ZM12.9747 15.8926L13.3365 15.169H13.0956C13.0783 15.0279 13.0376 14.8903 12.9747 14.7621C12.9039 14.6111 12.7982 14.4791 12.6663 14.3771C12.5321 14.2733 12.3747 14.2036 12.2077 14.174L12.2077 14.1739L12.1995 14.1726C12.1337 14.162 12.0672 14.1566 12.0006 14.1565V14.1565L11.9946 14.1565C11.9263 14.1572 11.8582 14.1635 11.7909 14.1753L11.7887 14.1757C11.6224 14.2056 11.4658 14.2752 11.3321 14.3785C11.2001 14.4804 11.0944 14.6123 11.0235 14.7632C10.9382 14.9379 10.8939 15.1299 10.8939 15.3244C10.8939 15.521 10.9392 15.7149 11.0262 15.8911L11.0269 15.8925L11.5519 16.9477L11.9984 17.8453L12.4467 16.9486L12.9747 15.8926Z" fill="#616A6A" stroke="#616A6A"/>
</svg>
