<svg width="24" height="24" viewBox="0 0 24 24" fill="none" xmlns="http://www.w3.org/2000/svg">
<path d="M9.675 16C10.1917 16 10.625 15.8208 10.975 15.4625C11.325 15.1042 11.5 14.675 11.5 14.175C11.5 13.675 11.325 13.2458 10.975 12.8875C10.625 12.5292 10.2 12.35 9.7 12.35C9.18333 12.35 8.74583 12.5292 8.3875 12.8875C8.02917 13.2458 7.85 13.675 7.85 14.175C7.85 14.675 8.02917 15.1042 8.3875 15.4625C8.74583 15.8208 9.175 16 9.675 16ZM12 11.325C12.5 11.325 12.9292 11.15 13.2875 10.8C13.6458 10.45 13.825 10.0167 13.825 9.5C13.825 9 13.6458 8.57083 13.2875 8.2125C12.9292 7.85417 12.5 7.675 12 7.675C11.5 7.675 11.0708 7.85417 10.7125 8.2125C10.3542 8.57083 10.175 9 10.175 9.5C10.175 10.0167 10.3542 10.45 10.7125 10.8C11.0708 11.15 11.5 11.325 12 11.325ZM14.325 16C14.825 16 15.2542 15.8208 15.6125 15.4625C15.9708 15.1042 16.15 14.675 16.15 14.175C16.15 13.675 15.9708 13.2458 15.6125 12.8875C15.2542 12.5292 14.825 12.35 14.325 12.35C13.825 12.35 13.3958 12.5292 13.0375 12.8875C12.6792 13.2458 12.5 13.675 12.5 14.175C12.5 14.675 12.6792 15.1042 13.0375 15.4625C13.3958 15.8208 13.825 16 14.325 16ZM12 22C10.6333 22 9.34167 21.7375 8.125 21.2125C6.90833 20.6875 5.84583 19.9708 4.9375 19.0625C4.02917 18.1542 3.3125 17.0917 2.7875 15.875C2.2625 14.6583 2 13.3667 2 12C2 10.6333 2.2625 9.34167 2.7875 8.125C3.3125 6.90833 4.02917 5.84583 4.9375 4.9375C5.84583 4.02917 6.90833 3.3125 8.125 2.7875C9.34167 2.2625 10.6333 2 12 2C13.3667 2 14.6583 2.2625 15.875 2.7875C17.0917 3.3125 18.1542 4.02917 19.0625 4.9375C19.9708 5.84583 20.6875 6.90833 21.2125 8.125C21.7375 9.34167 22 10.6333 22 12C22 13.3667 21.7375 14.6583 21.2125 15.875C20.6875 17.0917 19.9708 18.1542 19.0625 19.0625C18.1542 19.9708 17.0917 20.6875 15.875 21.2125C14.6583 21.7375 13.3667 22 12 22ZM12 20.5C14.3333 20.5 16.3333 19.6667 18 18C19.6667 16.3333 20.5 14.3333 20.5 12C20.5 9.66667 19.6667 7.66667 18 6C16.3333 4.33333 14.3333 3.5 12 3.5C9.66667 3.5 7.66667 4.33333 6 6C4.33333 7.66667 3.5 9.66667 3.5 12C3.5 14.3333 4.33333 16.3333 6 18C7.66667 19.6667 9.66667 20.5 12 20.5Z" fill="#616A6A"/>
</svg>
