<svg width="24" height="24" viewBox="0 0 24 24" fill="none" xmlns="http://www.w3.org/2000/svg">
<path fill-rule="evenodd" clip-rule="evenodd" d="M10.4824 20.1377C11.0004 20.7147 11.6654 21.0317 12.3554 21.0317H12.3564C13.0494 21.0317 13.7174 20.7147 14.2364 20.1367C14.5144 19.8297 14.9884 19.8047 15.2954 20.0817C15.6034 20.3587 15.6284 20.8337 15.3514 21.1407C14.5434 22.0377 13.4804 22.5317 12.3564 22.5317H12.3544C11.2334 22.5307 10.1724 22.0367 9.36743 21.1397C9.09043 20.8327 9.11543 20.3577 9.42343 20.0817C9.73143 19.8037 10.2054 19.8287 10.4824 20.1377ZM12.4052 1.03174C16.8502 1.03174 19.8362 4.49374 19.8362 7.72674C19.8362 9.38974 20.2592 10.0947 20.7082 10.8427C21.1522 11.5807 21.6552 12.4187 21.6552 14.0027C21.3062 18.0497 17.0812 18.3797 12.4052 18.3797C7.72923 18.3797 3.50323 18.0497 3.15822 14.0667C3.15523 12.4187 3.65823 11.5807 4.10223 10.8427L4.25897 10.5789C4.6449 9.9156 4.97423 9.19409 4.97423 7.72674C4.97423 4.49374 7.96023 1.03174 12.4052 1.03174ZM12.4052 2.53174C8.91023 2.53174 6.47423 5.26974 6.47423 7.72674C6.47423 9.80574 5.89723 10.7667 5.38723 11.6147C4.97823 12.2957 4.65523 12.8337 4.65523 14.0027C4.82223 15.8887 6.06723 16.8797 12.4052 16.8797C18.7082 16.8797 19.9922 15.8447 20.1582 13.9377C20.1552 12.8337 19.8322 12.2957 19.4232 11.6147C18.9132 10.7667 18.3362 9.80574 18.3362 7.72674C18.3362 5.26974 15.9002 2.53174 12.4052 2.53174Z" fill="#616A6A"/>
</svg>
