<svg width="188" height="139" viewBox="0 0 188 139" fill="none" xmlns="http://www.w3.org/2000/svg">
<g clip-path="url(#clip0_1017_38895)">
<path opacity="0.1" d="M12.7391 54.481H28.9918V76.7646H13.9275C13.8891 76.9949 13.8506 77.2237 13.8074 77.454H28.9918V95.4221C28.9662 95.4221 28.9405 95.4027 28.9165 95.3931C28.4894 95.2223 28.0623 95.0414 27.6353 94.8502C27.544 94.8083 27.4543 94.7648 27.3614 94.7245C26.9343 94.5216 26.5072 94.3068 26.0801 94.0802C25.9312 94.0012 25.7823 93.9191 25.6365 93.8353C23.2655 92.5046 21.1106 90.8173 19.2463 88.8319C19.1902 88.7787 19.139 88.7207 19.0861 88.6708C18.8267 88.3872 18.572 88.1005 18.3254 87.8073C18.2325 87.6994 18.1428 87.5899 18.0515 87.4851C17.76 87.1275 17.4782 86.757 17.2059 86.3849C17.1642 86.3285 17.1258 86.2737 17.0858 86.2238C15.9704 84.6714 15.0455 82.9893 14.3311 81.2139C14.3087 81.1607 14.2878 81.1027 14.267 81.0528C14.046 80.489 13.8458 79.9171 13.6728 79.334C13.5992 79.0907 13.5271 78.8507 13.4662 78.5978C13.4438 78.5253 13.4262 78.4512 13.407 78.3787C12.5069 74.8106 12.4028 71.1023 12.4028 67.4117C12.4028 66.9821 12.4028 66.5525 12.4028 66.123C12.4156 64.6162 12.4332 63.1111 12.4557 61.6076C12.4642 61.221 12.4722 60.8327 12.4797 60.4429C12.5021 59.456 12.5341 58.4669 12.5758 57.4756C12.5854 57.2018 12.5982 56.9263 12.6126 56.6541C12.619 56.4962 12.627 56.3383 12.6366 56.1805C12.6655 55.6102 12.6996 55.0437 12.7391 54.481Z" fill="#1E5156"/>
<path opacity="0.1" d="M28.9918 29.6695H20.0759C21.5259 27.3892 23.1094 25.1978 24.8181 23.1067C26.1442 21.47 27.5408 19.8752 28.9918 18.3384V29.6695Z" fill="#1E5156"/>
<path opacity="0.1" d="M28.9918 30.356V53.7914H12.7904C12.7904 53.7237 12.8 53.6544 12.8064 53.5868C12.8208 53.4015 12.8352 53.2179 12.8512 53.0326C12.8672 52.8168 12.8881 52.6009 12.9089 52.3883C12.9297 52.1756 12.9505 51.9179 12.9762 51.6843C13.0018 51.4507 13.0226 51.2139 13.0482 50.9803C13.0739 50.7468 13.0995 50.5132 13.1283 50.2812C13.1571 50.0492 13.1828 49.8141 13.2148 49.5821C13.2388 49.3904 13.2628 49.1971 13.2901 49.0038C13.3269 48.7315 13.3653 48.4593 13.4054 48.1887C13.4054 48.1468 13.4182 48.1065 13.4246 48.0662C13.7173 46.0853 14.1151 44.1215 14.6162 42.1832C15.1424 40.1503 15.8141 38.1583 16.6261 36.2229C17.4889 34.195 18.4996 32.234 19.6499 30.356H28.9918Z" fill="#1E5156"/>
<path opacity="0.1" d="M32.874 54.4807V76.7644H67.5894V54.4807H32.874ZM32.874 77.4538V96.5914C33.0726 96.6316 33.2679 96.6719 33.4649 96.7057C33.7292 96.7573 33.9951 96.804 34.2657 96.8443L34.4259 96.8668C34.5316 96.8846 34.6389 96.899 34.7462 96.9119C35.0136 96.9506 35.2811 96.9796 35.547 97.0054C35.6719 97.0183 35.8016 97.0279 35.9281 97.0392L36.2372 97.0618C36.4054 97.0746 36.572 97.0843 36.7385 97.0908C36.841 97.0908 36.9435 97.0988 37.0476 97.102C37.1517 97.1052 37.2078 97.102 37.2911 97.102H37.5938C37.7315 97.102 37.8692 97.102 38.0054 97.102H38.1815C38.3193 97.102 38.457 97.102 38.5931 97.0891H38.6012C38.6972 97.0891 38.7917 97.0891 38.8878 97.0779C38.915 97.0795 38.9423 97.0795 38.9695 97.0779C39.0496 97.0779 39.1297 97.0779 39.2065 97.0682C39.2247 97.0667 39.2429 97.0667 39.261 97.0682C39.4388 97.0569 39.6181 97.0424 39.7991 97.0263C39.9801 97.0102 40.1515 96.9909 40.3324 96.9715L40.696 96.9264C42.1816 96.7172 43.6507 96.4029 45.0923 95.9857C48.3322 95.0771 51.4985 93.8061 54.7369 92.8766C58.9202 91.6765 63.5455 91.0853 67.5878 92.5464V77.4538H32.874ZM67.5894 29.6696V0.00320372C63.7891 -0.0388524 59.999 0.407764 56.3112 1.3322C47.5202 3.55364 39.6261 8.37185 32.874 14.5255V29.668H34.6213V30.3559H32.874V53.7913H67.5894V30.3559H41.769V29.6664L67.5894 29.6696ZM112.19 19.6482C110.015 19.5709 107.853 18.8798 105.896 17.8085C102.158 15.7643 99.169 12.6037 95.8314 9.93926C88.8966 4.38647 80.2962 1.03418 71.4732 0.202956V29.6696H121.027L121.15 29.5391L112.19 19.6482ZM116.705 18.8427L121.492 24.1281V17.4525C119.88 17.6571 118.477 18.1323 116.705 18.8363V18.8427ZM121.492 101.344V77.4538H111.283C111.258 77.3523 111.229 77.2493 111.197 77.1462C111.227 77.2493 111.254 77.3523 111.282 77.4538H71.4732V94.7292C71.8512 95.0111 72.2243 95.3091 72.5943 95.6087C72.9936 95.9373 73.3903 96.2697 73.7843 96.6059L74.1815 96.9361C74.372 97.0972 74.5658 97.2583 74.758 97.4113C75.1435 97.7238 75.5316 98.0331 75.9224 98.3392C76.1177 98.4939 76.3142 98.6458 76.5117 98.7951C79.6399 101.2 82.9395 103.37 86.3838 105.289C87.1557 105.722 87.9357 106.139 88.7204 106.547C89.2425 106.817 89.7684 107.083 90.298 107.343C91.0923 107.732 91.8931 108.108 92.7003 108.47C100.142 111.83 108.011 114.135 116.083 115.32C117.875 115.585 119.674 115.794 121.482 115.948V101.34H121.642L121.492 101.344ZM71.4732 30.3559V53.7913H121.492V30.3559H71.4732ZM71.4732 54.4775V76.7644H121.492V54.4807L71.4732 54.4775ZM125.374 17.4203V24.8788L131.482 18.1339C129.458 17.7978 127.422 17.5599 125.374 17.4203ZM125.374 54.4807V76.7644H174.021V54.4807H125.374ZM173.85 103.111L174.021 77.4538H125.374V116.207C128.507 116.338 131.646 116.3 134.775 116.093H134.829C136.324 115.996 137.812 115.859 139.293 115.681H139.327C147.23 114.755 154.957 112.679 162.266 109.517L173.85 103.111ZM183.406 58.1407C183.222 57.7111 183.032 57.2816 182.838 56.852C182.476 56.0465 182.095 55.2636 181.701 54.4823H177.905V76.7644H187.5C187.492 70.4529 185.903 64.0092 183.406 58.1407ZM177.905 77.4538V99.5232C180.607 96.9184 182.892 93.9366 184.535 90.5279C186.513 86.4217 187.418 81.9789 187.494 77.4522L177.905 77.4538ZM177.905 47.9872V53.7864H181.345C180.302 51.7929 179.154 49.857 177.905 47.9872ZM144.913 21.7939C144.66 21.6956 144.405 21.5974 144.151 21.5039C141.466 20.5058 138.722 19.6762 135.934 19.0199L126.585 29.3394L126.402 29.5375L126.522 29.668H159.799C155.164 26.4601 150.167 23.8169 144.913 21.7939ZM160.776 30.3559H126.056L125.374 30.9825V53.7913H131.356H174.021V42.7405C170.163 38.0478 165.71 33.8841 160.776 30.3559Z" fill="#1E5156"/>
<path opacity="0.1" d="M28.9918 42.1782V53.7912H12.7904C12.7904 53.7236 12.8 53.6543 12.8064 53.5866C12.8208 53.4014 12.8352 53.2177 12.8512 53.0325C12.8672 52.8166 12.8881 52.6008 12.9089 52.3881C12.9297 52.1755 12.9505 51.9177 12.9762 51.6842C13.0018 51.4506 13.0226 51.2138 13.0482 50.9802C13.0739 50.7466 13.0995 50.513 13.1283 50.2811C13.1571 50.0491 13.1828 49.8139 13.2148 49.5819C13.2388 49.3902 13.2628 49.1969 13.2901 49.0036C13.3269 48.7314 13.3653 48.4591 13.4054 48.1885C13.4054 48.1466 13.4182 48.1063 13.4246 48.0661C13.7173 46.0851 14.1151 44.1213 14.6162 42.1831L28.9918 42.1782Z" fill="#1E5156"/>
<path opacity="0.1" d="M12.7391 54.481H28.9918V76.7646H13.9275C13.8891 76.9949 13.8506 77.2237 13.8074 77.454H28.9918V95.4221C28.9662 95.4221 28.9405 95.4027 28.9165 95.3931C28.4894 95.2223 28.0623 95.0414 27.6353 94.8502C27.544 94.8083 27.4543 94.7648 27.3614 94.7245C26.9343 94.5216 26.5072 94.3068 26.0801 94.0802C25.9312 94.0012 25.7823 93.9191 25.6365 93.8353C23.2655 92.5046 21.1106 90.8173 19.2463 88.8319C19.1902 88.7787 19.139 88.7207 19.0861 88.6708C18.8267 88.3872 18.572 88.1005 18.3254 87.8073C18.2325 87.6994 18.1428 87.5899 18.0515 87.4851C17.76 87.1275 17.4782 86.757 17.2059 86.3849C17.1642 86.3285 17.1258 86.2737 17.0858 86.2238C15.9704 84.6714 15.0455 82.9893 14.3311 81.2139C14.3087 81.1607 14.2878 81.1027 14.267 81.0528C14.046 80.489 13.8458 79.9171 13.6728 79.334C13.5992 79.0907 13.5271 78.8507 13.4662 78.5978C13.4438 78.5253 13.4262 78.4512 13.407 78.3787C12.5069 74.8106 12.4028 71.1023 12.4028 67.4117C12.4028 66.9821 12.4028 66.5525 12.4028 66.123C12.4156 64.6162 12.4332 63.1111 12.4557 61.6076C12.4642 61.221 12.4722 60.8327 12.4797 60.4429C12.5021 59.456 12.5341 58.4669 12.5758 57.4756C12.5854 57.2018 12.5982 56.9263 12.6126 56.6541C12.619 56.4962 12.627 56.3383 12.6366 56.1805C12.6655 55.6102 12.6996 55.0437 12.7391 54.481Z" fill="#1E5156"/>
<path opacity="0.1" d="M45.0939 33.713V53.7913H32.8724V33.713H34.6149V26.915H41.7675V33.713H45.0939Z" fill="#1E5156"/>
<path opacity="0.1" d="M45.0923 54.479H32.8724V76.7626H45.0923V54.479Z" fill="#1E5156"/>
<path opacity="0.1" d="M32.874 77.4536H45.0939V95.979C43.6524 96.3964 42.1833 96.7103 40.6976 96.9182C40.5759 96.9359 40.4558 96.9504 40.334 96.9633C40.1547 96.9842 39.9769 97.0035 39.7991 97.0196L39.2626 97.0631H39.2081L38.9711 97.076H38.8894C38.7933 97.076 38.6988 97.0873 38.6027 97.0889H38.5947C38.457 97.0889 38.3209 97.0986 38.1831 97.1018H38.007C37.8708 97.1018 37.7347 97.1018 37.5954 97.1018H37.2943H37.0492C36.9451 97.1018 36.8426 97.1018 36.7385 97.0889C36.5741 97.0825 36.4075 97.0728 36.2388 97.0599L35.9297 97.0374C35.8016 97.0277 35.6735 97.0148 35.547 97.0019C35.2779 96.9783 35.011 96.9477 34.7462 96.9101L34.4259 96.865L34.2657 96.8424C33.9983 96.8022 33.7324 96.7571 33.4649 96.7055C33.2663 96.6701 33.071 96.6298 32.874 96.5879V77.4536Z" fill="#1E5156"/>
<path opacity="0.1" d="M121.49 31.3418H111.413V53.7897H121.49V31.3418Z" fill="#1E5156"/>
<path opacity="0.1" d="M121.492 54.479V76.7642H71.4732V67.152H98.1152V72.8224H111.413V54.479H121.492Z" fill="#1E5156"/>
<path opacity="0.1" d="M121.65 101.348C121.597 101.348 121.544 101.348 121.49 101.339V115.957C119.685 115.808 117.885 115.599 116.093 115.331C108.018 114.147 100.146 111.843 92.7003 108.485C90.551 107.509 88.4455 106.447 86.3838 105.297C82.9406 103.377 79.6416 101.207 76.5134 98.803C75.7254 98.1973 74.9492 97.5782 74.1847 96.9456C73.6546 96.5042 73.1293 96.0532 72.5943 95.6166C72.226 95.3154 71.8528 95.0174 71.4732 94.7338V77.4537H111.282C111.253 77.3506 111.227 77.2491 111.198 77.146C111.229 77.2491 111.258 77.3506 111.283 77.4537H121.492V101.337C121.544 101.339 121.597 101.343 121.65 101.348Z" fill="#1E5156"/>
<path opacity="0.1" d="M147.773 29.6696H141.207V27.6173H144.149V21.5039C144.404 21.5984 144.658 21.6951 144.911 21.7939V27.6173H147.772L147.773 29.6696Z" fill="#1E5156"/>
<path opacity="0.1" d="M163.595 53.7914H131.356C131.359 53.7921 131.362 53.7921 131.365 53.7914H131.351H125.374V31.3434H127.068V47.9357H134.81V38.1092H141.208V30.356H147.775V38.1141H154.17V47.9406H163.597L163.595 53.7914Z" fill="#1E5156"/>
<path opacity="0.1" d="M125.374 54.481V76.7646H163.597V54.481H125.374ZM173.967 102.993L174.021 85.3539H163.597V77.4605H125.374V116.208C128.507 116.339 131.646 116.3 134.775 116.093H134.829C136.324 115.997 137.812 115.859 139.293 115.681H139.327C147.23 114.755 154.957 112.679 162.266 109.517" fill="#1E5156"/>
<path opacity="0.1" d="M178.578 77.4536H187.494C187.417 81.9786 186.513 86.4231 184.536 90.5277C182.892 93.938 180.607 96.9198 177.905 99.5246V85.3487H178.578V77.4536Z" fill="#1E5156"/>
<path opacity="0.1" d="M187.5 76.7643H178.578V58.1406H183.406C185.903 64.0091 187.492 70.4528 187.5 76.7643Z" fill="#1E5156"/>
<path opacity="0.1" d="M121.492 37.5825H116.093V44.6206H121.492V37.5825Z" fill="#1E5156"/>
<path opacity="0.1" d="M121.492 52.1709H116.093V53.7915H121.492V52.1709Z" fill="#1E5156"/>
<path opacity="0.1" d="M121.492 54.479H116.093V59.207H121.492V54.479Z" fill="#1E5156"/>
<path opacity="0.1" d="M121.492 66.7593H116.093V73.7973H121.492V66.7593Z" fill="#1E5156"/>
<path opacity="0.1" d="M121.492 81.3472H116.093V88.3852H121.492V81.3472Z" fill="#1E5156"/>
<path opacity="0.1" d="M121.492 101.337C121.544 101.337 121.597 101.337 121.652 101.348C121.599 101.348 121.546 101.348 121.492 101.339V102.974H116.093V95.9355H121.492V101.337Z" fill="#1E5156"/>
<path opacity="0.1" d="M121.492 110.522V115.958C119.685 115.808 117.885 115.599 116.093 115.331V110.522H121.492Z" fill="#1E5156"/>
<path opacity="0.1" d="M94.611 76.2471H71.4732V76.7642H94.611V76.2471Z" fill="#1E5156"/>
<path opacity="0.1" d="M94.611 77.4521H71.4732V79.4336H94.611V77.4521Z" fill="#1E5156"/>
<path opacity="0.1" d="M94.611 85.9287H71.4732V89.1151H94.611V85.9287Z" fill="#1E5156"/>
<path opacity="0.1" d="M94.611 95.6104V98.7967H76.5134C75.7254 98.1932 74.9492 97.5735 74.1847 96.9377C73.653 96.498 73.1276 96.0469 72.5943 95.6104H94.611Z" fill="#1E5156"/>
<path opacity="0.1" d="M94.611 105.29V108.484H92.7003C90.5511 107.509 88.4455 106.447 86.3838 105.296L94.611 105.29Z" fill="#1E5156"/>
<path opacity="0.1" d="M139.33 56.6392H134.775V61.2206H139.33V56.6392Z" fill="#1E5156"/>
<path opacity="0.1" d="M40.7088 35.2935H36.154V39.8749H40.7088V35.2935Z" fill="#1E5156"/>
<path opacity="0.1" d="M40.7088 45.9351H36.154V50.5165H40.7088V45.9351Z" fill="#1E5156"/>
<path opacity="0.1" d="M40.7088 56.5767H36.154V61.1581H40.7088V56.5767Z" fill="#1E5156"/>
<path opacity="0.1" d="M40.7088 67.2163H36.154V71.7977H40.7088V67.2163Z" fill="#1E5156"/>
<path opacity="0.1" d="M40.7088 77.8584H36.154V82.4398H40.7088V77.8584Z" fill="#1E5156"/>
<path opacity="0.1" d="M40.7088 88.5H36.154V93.0814H40.7088V88.5Z" fill="#1E5156"/>
<path opacity="0.1" d="M156.718 56.6392H152.163V61.2206H156.718V56.6392Z" fill="#1E5156"/>
<path opacity="0.1" d="M139.33 67.9399H134.775V72.5213H139.33V67.9399Z" fill="#1E5156"/>
<path opacity="0.1" d="M156.718 67.9399H152.163V72.5213H156.718V67.9399Z" fill="#1E5156"/>
<path opacity="0.1" d="M139.33 79.2388H134.775V83.8202H139.33V79.2388Z" fill="#1E5156"/>
<path opacity="0.1" d="M156.718 79.2388H152.163V83.8202H156.718V79.2388Z" fill="#1E5156"/>
<path opacity="0.1" d="M139.33 90.5391H134.775V95.1205H139.33V90.5391Z" fill="#1E5156"/>
<path opacity="0.1" d="M156.718 90.5391H152.163V95.1205H156.718V90.5391Z" fill="#1E5156"/>
<path opacity="0.1" d="M139.33 101.84H134.775V106.421H139.33V101.84Z" fill="#1E5156"/>
<path opacity="0.1" d="M156.718 101.84H152.163V106.421H156.718V101.84Z" fill="#1E5156"/>
<path opacity="0.1" d="M134.775 116.093V113.139H139.328V115.673L134.775 116.093Z" fill="#1E5156"/>
<path opacity="0.1" d="M13.4054 48.0615V50.6825H28.9918V48.0615H13.4054ZM14.9573 50.5182H13.6761V48.2274H14.9573V50.5182ZM16.5092 50.5182H15.228V48.2274H16.5092V50.5182ZM18.0579 50.5182H16.7767V48.2274H18.0579V50.5182ZM19.6098 50.5182H18.3286V48.2274H19.6098V50.5182ZM21.1602 50.5182H19.8789V48.2274H21.1602V50.5182ZM22.7121 50.5182H21.4308V48.2274H22.7121V50.5182ZM24.264 50.5182H22.9827V48.2274H24.264V50.5182ZM25.8143 50.5182H24.533V48.2274H25.8143V50.5182ZM27.3646 50.5182H26.0834V48.2274H27.3646V50.5182ZM28.9165 50.5182H27.6353V48.2274H28.9165V50.5182Z" fill="#1E5156"/>
<path opacity="0.1" d="M13.4054 55.6904V58.3114H28.9918V55.6904H13.4054ZM14.9573 58.1471H13.6761V55.8564H14.9573V58.1471ZM16.5092 58.1471H15.228V55.8564H16.5092V58.1471ZM18.0579 58.1471H16.7767V55.8564H18.0579V58.1471ZM19.6098 58.1471H18.3286V55.8564H19.6098V58.1471ZM21.1602 58.1471H19.8789V55.8564H21.1602V58.1471ZM22.7121 58.1471H21.4308V55.8564H22.7121V58.1471ZM24.264 58.1471H22.9827V55.8564H24.264V58.1471ZM25.8143 58.1471H24.533V55.8564H25.8143V58.1471ZM27.3646 58.1471H26.0834V55.8564H27.3646V58.1471ZM28.9165 58.1471H27.6353V55.8564H28.9165V58.1471Z" fill="#1E5156"/>
<path opacity="0.1" d="M13.4054 63.3213V65.9406H28.9918V63.3213H13.4054ZM14.9573 65.7747H13.6761V63.484H14.9573V65.7747ZM16.5092 65.7747H15.228V63.484H16.5092V65.7747ZM18.0579 65.7747H16.7767V63.484H18.0579V65.7747ZM19.6098 65.7747H18.3286V63.484H19.6098V65.7747ZM21.1602 65.7747H19.8789V63.484H21.1602V65.7747ZM22.7121 65.7747H21.4308V63.484H22.7121V65.7747ZM24.264 65.7747H22.9827V63.484H24.264V65.7747ZM25.8143 65.7747H24.533V63.484H25.8143V65.7747ZM27.3646 65.7747H26.0834V63.484H27.3646V65.7747ZM28.9165 65.7747H27.6353V63.484H28.9165V65.7747Z" fill="#1E5156"/>
<path opacity="0.1" d="M13.4054 70.9507V73.57H28.9918V70.9507H13.4054ZM14.9573 73.4057H13.6761V71.1118H14.9573V73.4057ZM16.5092 73.4057H15.228V71.1118H16.5092V73.4057ZM18.0579 73.4057H16.7767V71.1118H18.0579V73.4057ZM19.6098 73.4057H18.3286V71.1118H19.6098V73.4057ZM21.1602 73.4057H19.8789V71.1118H21.1602V73.4057ZM22.7121 73.4057H21.4308V71.1118H22.7121V73.4057ZM24.264 73.4057H22.9827V71.1118H24.264V73.4057ZM25.8143 73.4057H24.533V71.1118H25.8143V73.4057ZM27.3646 73.4057H26.0834V71.1118H27.3646V73.4057ZM28.9165 73.4057H27.6353V71.1118H28.9165V73.4057Z" fill="#1E5156"/>
<path opacity="0.1" d="M13.4807 78.5767C13.5415 78.8247 13.6136 79.0696 13.6873 79.3128V78.7426H14.9685V81.0317H14.2814C14.3007 81.0865 14.3215 81.1428 14.3439 81.1928H28.9982V78.5767H13.4807ZM16.5236 81.0317H15.2424V78.7426H16.5236V81.0317ZM18.0723 81.0317H16.7911V78.7426H18.0723V81.0317ZM19.6242 81.0317H18.343V78.7426H19.6242V81.0317ZM21.1746 81.0317H19.8933V78.7426H21.1746V81.0317ZM22.7265 81.0317H21.4452V78.7426H22.7265V81.0317ZM24.2784 81.0317H22.9971V78.7426H24.2784V81.0317ZM25.8287 81.0317H24.5474V78.7426H25.8287V81.0317ZM27.379 81.0317H26.0978V78.7426H27.379V81.0317ZM28.9309 81.0317H27.6497V78.7426H28.9309V81.0317Z" fill="#1E5156"/>
<path opacity="0.1" d="M17.0906 86.2061C17.1322 86.2576 17.1707 86.3156 17.2107 86.3671H18.0579V87.4674L18.3318 87.7896V86.3607H19.613V88.6707H19.0861C19.1374 88.7239 19.187 88.7803 19.2463 88.8318H28.9886V86.2061H17.0906ZM21.1682 88.6707H19.8869V86.3704H21.1682V88.6707ZM22.7201 88.6707H21.4388V86.3704H22.7201V88.6707ZM24.272 88.6707H22.9907V86.3704H24.272V88.6707ZM25.8223 88.6707H24.541V86.3704H25.8223V88.6707ZM27.3726 88.6707H26.0914V86.3704H27.3726V88.6707ZM28.9245 88.6707H27.6433V86.3704H28.9245V88.6707Z" fill="#1E5156"/>
<path opacity="0.1" d="M25.6413 93.835C25.7887 93.9187 25.9376 93.9961 26.0866 94.0782V93.9977H27.3678V94.7242C27.4607 94.7645 27.5488 94.8079 27.6401 94.8498V93.9977H28.9213V95.3927C28.9457 95.4038 28.9708 95.4129 28.9966 95.4201V93.835H25.6413Z" fill="#1E5156"/>
<path opacity="0.1" d="M121.49 101.337H121.65H121.49ZM111.197 77.1463C111.227 77.2494 111.254 77.3525 111.282 77.4539C111.258 77.3525 111.229 77.2494 111.197 77.1463ZM34.6213 29.6697V30.356H41.7755V29.6665L34.6213 29.6697ZM121.492 101.337H121.652H121.492ZM111.197 77.1463C111.227 77.2494 111.254 77.3525 111.282 77.4539C111.258 77.3525 111.229 77.2494 111.197 77.1463ZM121.49 101.337H121.65H121.49ZM111.197 77.1463C111.227 77.2494 111.254 77.3525 111.282 77.4539C111.258 77.3525 111.229 77.2494 111.197 77.1463Z" fill="#1E5156"/>
<path opacity="0.1" d="M141.346 139C149.965 139 156.952 137.871 156.952 136.479C156.952 135.087 149.965 133.958 141.346 133.958C132.727 133.958 125.741 135.087 125.741 136.479C125.741 137.871 132.727 139 141.346 139Z" fill="#1E5156"/>
<path opacity="0.1" d="M70.9639 136.479C79.5827 136.479 86.5695 135.35 86.5695 133.958C86.5695 132.566 79.5827 131.437 70.9639 131.437C62.3452 131.437 55.3583 132.566 55.3583 133.958C55.3583 135.35 62.3452 136.479 70.9639 136.479Z" fill="#1E5156"/>
<path d="M88.9302 67.2954C88.9264 67.2794 88.9181 67.2649 88.9062 67.2536C88.6676 67.0168 85.6246 62.6883 85.6246 62.6883C85.6246 62.6883 85.4645 62.205 85.205 61.5767C85.2882 61.4684 85.3506 61.3455 85.3892 61.2143C85.4032 61.1587 85.4134 61.1022 85.4196 61.0451C85.4196 61.0274 85.4324 61.0129 85.4372 60.9952C85.4929 60.7767 85.4873 60.547 85.4212 60.3315C85.4034 60.3868 85.3815 60.4406 85.3556 60.4926C85.2953 60.3049 85.2147 60.1245 85.1153 59.9546C84.7117 59.2554 84.1352 58.6658 83.7108 57.9844C83.0681 56.9257 82.8127 55.6747 82.9885 54.4469C82.9885 54.5097 82.9885 54.5741 82.9885 54.637C83.0045 54.3935 83.0366 54.1513 83.0845 53.9121C83.1515 53.6398 83.2409 53.3736 83.352 53.1163C83.7332 52.2383 84.3498 51.4731 84.7245 50.592C84.8503 50.2948 84.9458 49.9855 85.0096 49.6689C85.1417 49.1402 85.1898 48.5938 85.1522 48.05C85.1522 48.1789 85.1313 48.3077 85.1121 48.435C85.0716 47.1274 84.5467 45.8824 83.6403 44.9442C82.3318 43.6216 80.4532 43.1077 78.6562 42.8371C77.9011 42.7485 77.18 42.4716 76.5582 42.0316C75.8679 41.5822 74.9758 41.4743 74.1687 41.5725C73.2409 41.6734 72.3789 42.1021 71.7359 42.7823C70.8822 43.7263 70.5123 45.0634 69.5161 45.8592C68.9123 46.3424 68.1468 46.5679 67.4437 46.8966C66.7406 47.2252 66.076 47.702 65.8501 48.4076C65.8501 48.4076 65.8501 48.3979 65.8501 48.3931V48.4334L65.8405 48.4592C65.6067 49.2936 66.0583 50.1425 66.2938 50.9754C66.5388 51.8372 66.5548 52.7474 66.5676 53.6382C66.5853 54.7272 66.6013 55.8178 66.5837 56.9083C66.5757 57.3368 66.5612 57.7702 66.5292 58.1971C66.1501 58.3123 65.7819 58.4611 65.4289 58.6417C65.0702 58.8769 63.7281 60.3347 63.7281 60.3347L61.1031 70.4222L61.1384 70.4625L61.1031 70.5994L61.236 70.5688C61.6076 70.9715 62.7175 72.1185 63.9155 72.8337L64.0276 74.8119C64.0276 74.8119 64.1621 76.7966 65.9767 77.6165C66.0183 78.3044 66.148 81.0977 65.5475 82.2043C65.1316 83.0128 64.936 83.9177 64.9805 84.8269C64.9805 84.8269 65.1903 86.5055 64.9517 87.3882C64.8123 87.9782 64.8019 88.5916 64.9212 89.186C64.9212 89.186 64.9212 89.3809 64.9212 89.716C64.9212 91.5025 64.9421 97.2276 64.9212 97.8752C64.8908 98.6404 64.9212 109.957 64.9212 109.957C64.9212 109.957 64.7723 115.613 64.295 117.145C63.8178 118.677 63.9379 123.75 63.9379 123.75C63.9379 123.75 63.6384 129.792 64.697 130.984C64.697 131.037 64.6874 131.092 64.6858 131.145C64.6858 131.169 64.6858 131.197 64.6858 131.221C64.673 131.68 64.7611 132.168 65.1535 132.318C65.9542 132.627 67.0129 133.555 67.2131 133.821C67.4133 134.087 68.5776 134.749 70.0959 134.572C71.047 134.464 72.0042 134.42 72.9611 134.439C72.9611 134.439 73.5601 134.33 73.3663 133.581C73.2414 133.114 72.7737 132.395 72.4406 131.923C72.5014 131.939 72.5607 131.952 72.6167 131.964L72.6744 131.975H72.7192C72.7438 131.976 72.7684 131.976 72.7929 131.975H72.8249C72.8548 131.977 72.8848 131.977 72.9146 131.975C73.3166 131.936 74.8157 132.639 75.0831 133.102C75.3506 133.566 76.2939 133.919 77.005 134.008C77.4278 134.059 78.4945 133.972 79.3897 133.856C79.8406 133.81 80.2872 133.728 80.7254 133.611C80.9368 133.531 80.9817 133.273 80.9208 132.983C80.8489 132.615 80.6533 132.283 80.3667 132.042C80.1072 131.857 79.7645 131.369 79.5115 130.97L79.4442 130.862C79.891 130.433 80.6982 129.032 80.9433 128.742C81.2411 128.389 80.4628 115.487 80.4628 115.487V109.019L81.656 102.898L82.4904 99.6585L83.2063 94.7678C83.2063 94.7678 84.4587 89.0555 84.0727 88.4949C84.0727 88.4836 83.7524 82.6022 83.4161 81.1895C83.2703 80.5596 83.3072 79.142 83.3937 77.7631C83.484 77.6728 83.547 77.5586 83.5754 77.4337C83.6038 77.3087 83.5963 77.1783 83.5538 77.0575C83.5299 76.9749 83.4988 76.8946 83.4609 76.8175C83.4609 76.7933 83.4609 76.7676 83.4609 76.7434C84.1528 76.4232 84.8757 76.1759 85.6182 76.0056C86.8114 75.7704 86.5135 75.1518 86.5135 75.1518C86.5135 75.1518 86.7825 74.6218 86.9603 74.298C87.1381 73.9742 86.9908 71.1165 86.9603 70.8813C86.9491 70.7863 86.8754 70.2611 86.7906 69.6651C87.1733 69.3912 87.6714 69.0513 88.2143 68.7291C89.2474 68.1138 89.0151 67.4646 88.9302 67.2954ZM73.3631 108.137C73.3631 108.137 72.4678 110.434 72.8265 111.022C73.1853 111.61 72.7673 113.793 72.7673 113.793L72.4678 117.032C72.4678 117.032 71.6334 123.041 71.9313 124.454C72.1651 125.562 72.2516 128.872 72.2788 130.253C72.2583 130.261 72.2385 130.27 72.2196 130.282L72.1795 130.303C72.3173 129.76 72.2596 128.661 71.5757 126.451L71.5181 117.322C71.5181 117.322 71.4124 106.777 72.2404 105.598C73.0684 104.419 73.3615 102.416 73.3615 102.416C73.3615 102.416 73.1821 105.305 73.0652 106.07C72.9483 106.835 73.3631 108.137 73.3631 108.137ZM71.6958 130.828C71.6878 130.847 71.6782 130.867 71.6718 130.884L71.627 130.826C71.6499 130.828 71.6729 130.829 71.6958 130.828Z" fill="url(#paint0_linear_1017_38895)"/>
<path d="M80.8264 134.446C80.3635 134.625 77.8539 134.929 77.1524 134.844C76.4509 134.758 75.522 134.401 75.2577 133.934C74.9935 133.466 73.512 132.761 73.1148 132.806C72.952 132.811 72.7896 132.788 72.6344 132.738C72.3603 132.655 72.0927 132.551 71.8336 132.429C71.7974 132.226 71.8034 132.018 71.8512 131.817C71.8604 131.776 71.8722 131.737 71.8864 131.698C71.9799 131.433 72.1733 131.217 72.4246 131.095L72.4822 131.068C72.5932 131.02 72.7093 130.984 72.8282 130.961C74.087 130.718 79.2809 131.206 79.2809 131.206C79.2809 131.206 79.4266 131.469 79.6268 131.794C79.8766 132.197 80.2162 132.688 80.4724 132.874C80.7563 133.118 80.9489 133.452 81.0185 133.821C81.0794 134.106 81.0346 134.367 80.8264 134.446Z" fill="white"/>
<path opacity="0.1" d="M80.8263 134.446C80.3635 134.625 77.8554 134.929 77.154 134.844C76.4525 134.759 75.5236 134.399 75.2577 133.934C74.9919 133.468 73.5136 132.761 73.1164 132.806C72.7192 132.851 71.8352 132.429 71.8352 132.429C71.8352 132.429 71.6974 131.785 72.0978 131.345L72.8986 131.917C72.8986 131.917 75.0415 132.586 75.4387 133.206C75.8359 133.826 76.5598 134.172 77.6056 134.235C78.3872 134.287 80.1825 133.981 81.0233 133.828C81.0794 134.106 81.0361 134.367 80.8263 134.446Z" fill="black"/>
<path d="M73.1597 135.268C72.215 135.249 71.2701 135.294 70.3313 135.401C68.8274 135.579 67.6791 134.918 67.4789 134.646C67.2787 134.374 66.2425 133.454 65.4465 133.132C65.0573 132.98 64.9661 132.487 64.9837 132.027C64.9837 132.002 64.9837 131.975 64.9837 131.951C64.9984 131.659 65.0413 131.369 65.1118 131.086L71.3435 130.952L71.8832 131.688L71.9665 131.801L72.2948 132.251C72.2948 132.251 72.4438 132.447 72.6392 132.734C72.9691 133.217 73.4303 133.931 73.5536 134.403C73.7506 135.158 73.1597 135.268 73.1597 135.268Z" fill="white"/>
<path opacity="0.1" d="M73.1597 135.268C72.215 135.249 71.2701 135.294 70.3313 135.401C68.829 135.579 67.6791 134.918 67.4805 134.646C67.2819 134.374 66.2425 133.446 65.4465 133.135C65.0573 132.983 64.9661 132.491 64.9837 132.03C65.4289 132.134 66.3642 132.402 66.731 132.867C67.2114 133.489 68.0715 134.535 69.2935 134.601C70.28 134.654 72.6824 134.477 73.5632 134.406C73.7522 135.158 73.1597 135.268 73.1597 135.268Z" fill="black"/>
<path opacity="0.1" d="M72.4181 131.089C72.3461 131.627 72.1234 131.772 71.9633 131.804C71.9242 131.812 71.8839 131.812 71.8448 131.804C71.8237 131.803 71.8028 131.799 71.7823 131.794C71.7823 131.794 66.1865 133.038 65.0558 132.031C65.027 132.005 65.0003 131.977 64.9757 131.947C64.9904 131.656 65.0333 131.366 65.1038 131.082L71.3355 130.949L71.8752 131.685C71.9687 131.421 72.1621 131.204 72.4133 131.082L72.4181 131.089Z" fill="black"/>
<path opacity="0.1" d="M79.6252 131.788C79.5003 131.926 79.3962 132.005 79.3305 131.978C79.0358 131.859 76.6207 131.445 75.8535 131.801C75.0864 132.157 72.4902 131.859 72.4902 131.859C72.4902 131.859 72.4902 131.549 72.4758 131.053C72.5869 131.005 72.7029 130.969 72.8218 130.947C74.0806 130.704 79.2744 131.192 79.2744 131.192C79.2744 131.192 79.4266 131.462 79.6252 131.788Z" fill="black"/>
<path d="M83.28 95.3495L82.5721 100.269L81.7489 103.53L80.5701 109.693V116.217C80.5701 116.217 81.3357 129.198 81.041 129.552C80.7463 129.907 79.6268 131.925 79.3321 131.807C79.0374 131.69 76.6223 131.274 75.8551 131.629C75.088 131.983 72.4918 131.688 72.4918 131.688C72.4918 131.688 72.4326 126.651 72.1379 125.228C71.8432 123.806 72.668 117.76 72.668 117.76L72.9627 114.501C72.9627 114.501 73.3759 112.307 73.022 111.715C72.668 111.122 73.5521 108.815 73.5521 108.815C73.5521 108.815 73.1405 107.509 73.259 106.739C73.3775 105.969 73.5521 103.064 73.5521 103.064C73.5521 103.064 73.259 105.081 72.4406 106.265C71.6222 107.449 71.7263 118.06 71.7263 118.06L71.784 127.242C73.259 132.104 71.784 131.629 71.784 131.629C71.784 131.629 66.1881 132.874 65.0574 131.865C63.9267 130.857 64.2502 124.51 64.2502 124.51C64.2502 124.51 64.1333 119.413 64.6041 117.873C65.075 116.333 65.2239 110.642 65.2239 110.642C65.2239 110.642 65.1935 99.2607 65.2239 98.4923C65.2464 97.848 65.2239 92.0793 65.2239 90.2767C65.2239 89.9417 65.2239 89.7435 65.2239 89.7435L65.8998 88.0553L73.9076 87.0469H77.7386C77.7386 87.0469 83.5042 88.4097 84.1 88.9977C84.1127 89.0075 84.1235 89.0195 84.132 89.0331C84.518 89.6018 83.28 95.3495 83.28 95.3495Z" fill="#1E5156"/>
<path opacity="0.1" d="M73.5569 121.191C73.5569 121.191 75.3186 125.459 76.1498 125.755C76.981 126.052 73.5569 121.191 73.5569 121.191Z" fill="black"/>
<path opacity="0.1" d="M74.2087 127.474C74.2087 127.474 80.1569 127.771 80.0976 128.423C80.0384 129.075 74.2087 127.474 74.2087 127.474Z" fill="black"/>
<path opacity="0.1" d="M66.2505 125.768C66.486 125.992 70.7878 126.412 70.4338 126.822C70.0799 127.231 66.6045 128.027 66.6045 128.027L66.2505 125.768Z" fill="black"/>
<path opacity="0.1" d="M65.5443 118.406C65.5443 118.583 66.4283 124.096 66.6653 124.333C66.9024 124.57 68.8451 124.806 68.8451 124.806L65.5443 118.406Z" fill="black"/>
<path d="M71.9585 43.0579C71.1145 44.0067 70.7493 45.3518 69.766 46.1541C69.1686 46.6373 68.4126 46.8677 67.7176 47.1963C67.0225 47.5249 66.3338 48.0259 66.1272 48.7702C65.8966 49.6078 66.3418 50.4632 66.5756 51.3009C66.8175 52.1676 66.8319 53.0729 66.8463 53.9798C66.8623 55.0769 66.8799 56.1739 66.8607 57.2709C66.8319 58.9801 66.691 60.7682 65.7893 62.2164C69.0453 63.2586 72.5078 63.4004 75.9224 63.5341C76.5786 63.5812 77.2377 63.5645 77.8907 63.4842C78.4565 63.3708 79.0162 63.2283 79.5675 63.0573C80.6576 62.7672 81.7808 62.6226 82.9084 62.6272C83.4001 62.6272 83.9014 62.6578 84.3754 62.5289C84.8495 62.4 85.3059 62.0698 85.4341 61.593C85.5478 61.1645 85.3812 60.7086 85.1634 60.3236C84.7662 59.6212 84.2025 59.0349 83.7764 58.3422C83.3415 57.6105 83.0835 56.7863 83.0232 55.936C82.9628 55.0857 83.1018 54.233 83.4289 53.4466C83.8069 52.5622 84.4155 51.7922 84.787 50.9062C85.1676 49.955 85.2688 48.9138 85.0786 47.9064C84.8884 46.899 84.4148 45.9677 83.714 45.223C82.4215 43.8924 80.5669 43.3769 78.7924 43.103C78.0452 43.0142 77.3324 42.7372 76.7199 42.2976C76.0393 41.8465 75.1568 41.737 74.3592 41.8368C73.4391 41.9405 72.5869 42.374 71.9585 43.0579Z" fill="#3F3D56"/>
<g opacity="0.1">
<path opacity="0.1" d="M83.4785 52.5169C83.152 53.2931 83.0121 54.1359 83.0701 54.9767C83.106 54.3754 83.2441 53.7848 83.4785 53.2305C83.8549 52.3461 84.4635 51.5761 84.8351 50.6901C85.1388 49.9503 85.2666 49.1493 85.2082 48.3511C85.1752 48.9106 85.0491 49.4606 84.8351 49.9781C84.4635 50.8641 83.8549 51.6325 83.4785 52.5169Z" fill="black"/>
<path opacity="0.1" d="M66.8944 53.7607C66.904 54.3922 66.9136 55.0253 66.9152 55.6568C66.9152 54.7869 66.9072 53.9186 66.8944 53.0503C66.8816 52.1498 66.8655 51.2381 66.6237 50.3698C66.4635 49.8188 66.2265 49.2599 66.1432 48.7041C66.0007 49.4934 66.4059 50.2941 66.6237 51.0818C66.8655 51.942 66.8816 52.8602 66.8944 53.7607Z" fill="black"/>
<path opacity="0.1" d="M84.4298 61.6074C83.9494 61.7379 83.4561 61.7089 82.9644 61.7056C81.8377 61.6984 80.715 61.8403 79.6252 62.1277C79.0737 62.298 78.5141 62.4399 77.9483 62.553C77.2949 62.6346 76.6351 62.6519 75.9784 62.6045C72.6792 62.474 69.3335 62.3339 66.1736 61.3851C66.0798 61.5957 65.9728 61.8002 65.8533 61.9972C69.1093 63.0379 72.5719 63.1812 75.9848 63.3149C76.6415 63.3623 77.3013 63.345 77.9547 63.2634C78.5185 63.1514 79.076 63.01 79.6252 62.8397C80.7127 62.5513 81.8333 62.4078 82.958 62.4128C83.4497 62.4128 83.9494 62.4434 84.4234 62.313C84.8975 62.1825 85.3539 61.8555 85.4821 61.3786C85.536 61.1578 85.5305 60.9265 85.466 60.7085C85.3235 61.1595 84.8831 61.4737 84.4298 61.6074Z" fill="black"/>
</g>
<path d="M79.686 59.6983C79.5675 59.9657 79.0678 62.2757 78.9493 62.5125C78.8308 62.7493 78.1838 66.5398 78.1245 66.7524C78.0652 66.9651 73.8595 65.8632 73.8595 65.8632L71.3275 63.7288L68.7249 61.1239C68.7249 61.1239 68.6481 58.7736 70.5651 58.0197C70.6954 57.9683 70.8292 57.9263 70.9655 57.8941C73.291 57.3319 73.0572 50.2197 73.0572 50.2197L77.8298 52.293C77.8298 52.293 76.9458 56.4426 76.9762 57.2433C76.9842 57.5123 77.194 57.6798 77.4679 57.7813C77.8913 57.9025 78.3321 57.9504 78.7715 57.9231C78.7715 57.9231 79.8045 59.4325 79.686 59.6983Z" fill="#FBBEBE"/>
<path d="M88.2304 67.4921L88.9078 67.6709C88.9078 67.6709 89.4091 68.4377 88.2304 69.1513C87.4819 69.6086 86.7634 70.1139 86.0795 70.664L82.5961 71.7304L81.925 69.6121L85.1666 67.1377L88.2304 67.4921Z" fill="#1E5156"/>
<path opacity="0.1" d="M88.2304 67.4921L88.9078 67.6709C88.9078 67.6709 89.4091 68.4377 88.2304 69.1513C87.4819 69.6086 86.7634 70.1139 86.0795 70.664L82.5961 71.7304L81.925 69.6121L85.1666 67.1377L88.2304 67.4921Z" fill="black"/>
<path d="M62.8088 69.5378L61.4539 70.8717C61.4539 70.8717 63.8978 73.7165 65.7781 73.8937C67.6583 74.0709 68.8707 71.7303 68.8707 71.7303L67.2435 69.1528L62.8088 69.5378Z" fill="#1E5156"/>
<path opacity="0.1" d="M62.8088 69.5378L61.4539 70.8717C61.4539 70.8717 63.8978 73.7165 65.7781 73.8937C67.6583 74.0709 68.8707 71.7303 68.8707 71.7303L67.2435 69.1528L62.8088 69.5378Z" fill="black"/>
<path opacity="0.1" d="M75.6789 54.8675C78.2821 54.8675 80.3923 52.745 80.3923 50.1266C80.3923 47.5083 78.2821 45.3857 75.6789 45.3857C73.0758 45.3857 70.9655 47.5083 70.9655 50.1266C70.9655 52.745 73.0758 54.8675 75.6789 54.8675Z" fill="black"/>
<path d="M75.6789 54.5116C78.2821 54.5116 80.3923 52.389 80.3923 49.7707C80.3923 47.1524 78.2821 45.0298 75.6789 45.0298C73.0758 45.0298 70.9655 47.1524 70.9655 49.7707C70.9655 52.389 73.0758 54.5116 75.6789 54.5116Z" fill="#FBBEBE"/>
<path opacity="0.1" d="M84.1352 89.5712C83.0619 89.6947 82.0048 89.9329 80.9817 90.2816C79.22 90.8712 65.4145 90.2913 65.2224 90.2816C65.2224 89.9465 65.2224 89.7484 65.2224 89.7484L65.8982 88.0602L73.906 87.0518H77.7369C77.7369 87.0518 83.5026 88.4146 84.0983 89.0026C84.1224 89.357 84.1352 89.5712 84.1352 89.5712Z" fill="black"/>
<path opacity="0.1" d="M79.686 59.6982C79.5675 59.9656 79.0678 62.2757 78.9493 62.5125C78.8308 62.7493 78.1838 66.5397 78.1245 66.7524C78.0652 66.965 73.8595 65.8631 73.8595 65.8631L71.3275 63.7287L68.7249 61.1239C68.7249 61.1239 68.6481 58.7736 70.5651 58.0197L75.325 63.5241L77.4679 57.7812C77.8913 57.9024 78.3321 57.9504 78.7715 57.923C78.7715 57.923 79.8045 59.4324 79.686 59.6982Z" fill="black"/>
<path d="M75.325 63.7017L70.453 58.0635C70.1678 57.8804 69.8419 57.7715 69.5045 57.7464C69.1671 57.7214 68.8287 57.7811 68.5199 57.9202C67.4293 58.3954 66.0744 58.7804 65.7204 59.0172C65.3665 59.254 64.0404 60.7199 64.0404 60.7199L67.9898 71.1118L66.2505 77.9566C66.2505 77.9566 66.5164 81.4538 65.8389 82.7281C65.4264 83.5428 65.2332 84.452 65.2784 85.3651C65.2784 85.3651 65.485 87.055 65.2496 87.9426C65.112 88.536 65.1016 89.1522 65.2191 89.75C65.2191 89.75 79.2152 90.3428 80.9817 89.75C82.0045 89.4003 83.0618 89.1621 84.1352 89.0396C84.1352 89.0396 83.8149 83.1115 83.4946 81.689C83.1742 80.2666 83.7604 74.8443 83.7604 74.8443L83.3776 69.0354L85.6743 63.0751C85.6743 63.0751 84.4299 59.254 83.1326 58.869C83.1326 58.869 80.7767 58.3052 80.2754 58.0394C79.7741 57.7736 78.3007 57.5352 78.3007 57.5352L77.5271 57.7961L75.325 63.7017Z" fill="#1E5156"/>
<path opacity="0.1" d="M82.1224 68.8393L71.8704 68.1381C71.611 68.1203 71.3864 68.3175 71.3687 68.5785L70.2681 84.8593C70.2504 85.1203 70.4465 85.3462 70.7059 85.364L80.9579 86.0651C81.2173 86.0829 81.442 85.8857 81.4596 85.6247L82.5602 69.3439C82.5779 69.0829 82.3819 68.857 82.1224 68.8393Z" fill="black"/>
<path d="M82.4754 68.4857L72.2234 67.7846C71.964 67.7668 71.7394 67.964 71.7217 68.225L70.6211 84.5058C70.6034 84.7668 70.7995 84.9927 71.0589 85.0104L81.3109 85.7116C81.5703 85.7294 81.7949 85.5322 81.8126 85.2712L82.9132 68.9904C82.9309 68.7294 82.7348 68.5035 82.4754 68.4857Z" fill="#3F3D56"/>
<path d="M82.1371 69.7616L72.3868 69.0947L71.3849 83.9162L81.1351 84.5831L82.1371 69.7616Z" fill="white"/>
<path opacity="0.1" d="M81.2628 73.5447L73.2983 72.9839L73.1429 75.2166L81.1075 75.7774L81.2628 73.5447Z" fill="black"/>
<path opacity="0.1" d="M80.9746 82.4175L79.7107 82.3311L79.632 83.4946L80.896 83.5811L80.9746 82.4175Z" fill="black"/>
<path opacity="0.1" d="M79.7279 79.609L73.2581 79.1665L73.1795 80.3301L79.6492 80.7726L79.7279 79.609Z" fill="black"/>
<path d="M80.9303 69.2073L74.1937 68.7466L74.0727 70.5354L80.8094 70.9961L80.9303 69.2073Z" fill="#3F3D56"/>
<path opacity="0.1" d="M80.9303 69.2073L74.1937 68.7466L74.0727 70.5354L80.8094 70.9961L80.9303 69.2073Z" fill="black"/>
<path opacity="0.1" d="M75.9144 89.2441C75.9144 89.2441 75.8551 98.0171 73.5569 103.054C73.5569 103.054 76.3276 96.4159 76.3276 96.1501C76.3276 95.8843 77.8587 93.0974 77.4487 92.2678C77.0387 91.4382 75.9144 89.2441 75.9144 89.2441Z" fill="black"/>
<path opacity="0.1" d="M76.0393 48.5848C75.9512 47.8083 76.1402 47.0256 76.5726 46.3762C76.5212 47.0271 76.7042 47.6749 77.0882 48.2013C77.4722 48.7277 78.0316 49.0977 78.6642 49.2437C78.6102 49.1965 78.5717 49.1341 78.5537 49.0645C78.5357 48.9949 78.539 48.9214 78.5633 48.8538C78.8917 49.2275 79.1431 49.6705 79.5147 49.9992C79.8862 50.3278 80.4436 50.5243 80.8808 50.2907C81.475 49.9686 81.4814 49.1196 81.3276 48.4591C80.9977 47.0526 80.3208 45.7523 79.3593 44.6784C79.1194 44.3537 78.8081 44.0894 78.4496 43.906C78.0912 43.7227 77.6954 43.6253 77.2933 43.6216C76.3836 43.5507 75.4387 43.6313 74.6235 44.042C74.1647 44.2938 73.7351 44.5958 73.3422 44.9425L71.1001 46.7822C70.8843 46.9385 70.6996 47.1341 70.5555 47.3589C70.4593 47.5468 70.4016 47.7522 70.3858 47.963C70.3285 48.5655 70.4393 49.1721 70.7058 49.7148C70.9723 50.2574 71.3839 50.7146 71.8944 51.035C71.8836 50.5588 72.0138 50.0901 72.2685 49.6886C72.5232 49.287 72.8908 48.9706 73.3246 48.7797C73.3926 48.8369 73.4476 48.908 73.486 48.9883C73.5244 49.0686 73.5453 49.1562 73.5472 49.2453L74.0197 48.3979C74.09 48.2437 74.2007 48.1117 74.34 48.0161C74.6315 47.8551 74.9951 48.0451 75.2433 48.2723C75.4915 48.4994 75.7334 48.7829 76.0665 48.8184L76.0793 47.557" fill="black"/>
<path d="M76.0393 48.4077C75.951 47.6307 76.14 46.8474 76.5726 46.1976C76.4285 47.4863 77.3942 48.8169 78.6659 49.065C78.6118 49.0182 78.5732 48.9561 78.5552 48.8867C78.5372 48.8173 78.5406 48.7441 78.565 48.6768C78.8933 49.0505 79.1447 49.4919 79.5163 49.8221C79.8878 50.1523 80.4452 50.3473 80.8824 50.1121C81.4766 49.7899 81.483 48.9409 81.3293 48.2821C80.9993 46.8755 80.3224 45.5752 79.3609 44.5013C79.0626 44.1355 78.6867 43.8416 78.2607 43.6411C77.9523 43.5263 77.6282 43.46 77.2997 43.4445C76.39 43.3737 75.4451 43.4526 74.6299 43.8634C74.1715 44.1163 73.7418 44.4188 73.3487 44.7655L71.1065 46.6051C70.8904 46.7611 70.7056 46.9567 70.5619 47.1818C70.4655 47.3697 70.4078 47.5751 70.3922 47.7859C70.335 48.3882 70.4459 48.9945 70.7124 49.5369C70.9789 50.0793 71.3905 50.5362 71.9008 50.8563C71.8905 50.3802 72.0209 49.9117 72.2755 49.5102C72.5301 49.1087 72.8975 48.7923 73.331 48.601C73.3988 48.6584 73.4536 48.7296 73.492 48.8098C73.5304 48.8901 73.5514 48.9776 73.5537 49.0666L74.0245 48.2225C74.0944 48.068 74.2052 47.9359 74.3448 47.8407C74.6363 47.6796 74.9999 47.8697 75.2481 48.0968C75.4964 48.324 75.7382 48.6059 76.0713 48.6429L76.0841 47.38" fill="#3F3D56"/>
<path d="M78.2718 78.3108C77.8602 78.1013 71.0536 79.1694 71.0536 79.1694C71.0536 79.1694 69.9325 78.8472 67.2227 78.3994C64.5128 77.9515 64.3399 75.2871 64.3399 75.2871L64.0436 69.9534L64.9581 69.1479L68.8755 71.7254C68.8755 71.7254 68.9363 73.0286 68.8755 73.2638C68.8371 73.4249 68.7346 73.6166 68.7442 73.7471C68.7471 73.7824 68.7616 73.8158 68.7854 73.842C68.8091 73.8682 68.8408 73.8858 68.8755 73.8921C69.1413 73.9597 72.7641 74.5493 72.7641 74.5493C72.7641 74.5493 81.1611 73.971 83.2543 76.8158C83.4202 77.0247 83.5456 77.2629 83.6243 77.5182C84.1432 79.4626 78.645 78.496 78.2718 78.3108Z" fill="#FBBEBE"/>
<path opacity="0.1" d="M83.6291 77.5294C83.3088 77.6728 83.1102 77.7759 83.1102 77.7759C83.1102 77.7759 80.1056 77.6873 78.4176 77.0719C76.7295 76.4566 74.6779 76.5661 74.6779 76.5661C74.6779 76.5661 67.6439 75.3483 68.7345 73.7583C68.7375 73.7936 68.752 73.827 68.7757 73.8532C68.7995 73.8794 68.8312 73.897 68.8659 73.9033C69.1317 73.9709 72.7545 74.5605 72.7545 74.5605C72.7545 74.5605 81.1514 73.9822 83.2447 76.8271C83.4157 77.0347 83.5461 77.273 83.6291 77.5294Z" fill="black"/>
<path d="M86.5503 68.1445C86.5503 68.1445 86.9635 71.078 86.9924 71.3164C87.0212 71.5548 87.1701 74.4271 86.9924 74.7541C86.8146 75.0811 86.5503 75.6127 86.5503 75.6127C86.5503 75.6127 86.845 76.2345 85.6663 76.4729C84.4875 76.7113 83.1038 77.4201 83.1038 77.4201C83.1038 77.4201 80.0976 77.3315 78.4192 76.7097C76.7408 76.0879 74.678 76.2055 74.678 76.2055C74.678 76.2055 65.7493 74.6639 69.5802 72.7823C73.4111 70.9008 76.121 73.4492 76.121 73.4492L80.3923 73.1834C80.3923 73.1834 81.9843 72.204 82.4263 72.2942C82.7385 72.3342 83.0554 72.2827 83.3392 72.146L83.3696 69.0338L86.5503 68.1445Z" fill="#FBBEBE"/>
<path opacity="0.1" d="M64.8908 60.9435L64.0356 60.8984L61.4442 71.0471C61.4442 71.0471 64.2422 70.3351 65.4481 71.0471C66.6541 71.7591 68.8659 71.9057 68.8659 71.9057L68.0411 63.8158L64.8908 60.9435Z" fill="black"/>
<path d="M64.8908 60.7648L64.0356 60.7197L61.4442 70.8684C61.4442 70.8684 64.2422 70.1564 65.4481 70.8684C66.6541 71.5804 68.8659 71.727 68.8659 71.727L68.0411 63.6371L64.8908 60.7648Z" fill="#1E5156"/>
<path opacity="0.1" d="M84.4891 62.9878L85.6663 63.2552C85.6663 63.2552 88.6724 67.6046 88.9078 67.8479C89.1433 68.0911 87.7867 68.9755 87.2278 68.9755C86.6688 68.9755 83.9286 69.2977 83.1326 70.0419C82.3366 70.7862 82.6681 67.0408 82.6681 66.9555C82.6681 66.8701 83.6563 64.5069 83.6563 64.5069L84.4891 62.9878Z" fill="black"/>
<path d="M84.4891 62.8105L85.6663 63.0763C85.6663 63.0763 88.6724 67.4338 88.9078 67.6706C89.1433 67.9074 87.7867 68.7983 87.2278 68.7983C86.6688 68.7983 83.9286 69.1204 83.1326 69.8647C82.3366 70.6089 82.6681 66.8636 82.6681 66.7782C82.6681 66.6928 83.6627 64.3216 83.6627 64.3216L84.4891 62.8105Z" fill="#1E5156"/>
<g opacity="0.1">
<path opacity="0.1" d="M76.5646 46.2118C76.5577 46.0883 76.5603 45.9644 76.5726 45.8413C76.3287 46.2093 76.161 46.623 76.0793 47.0575V47.4313C76.0793 47.4313 76.0793 47.4232 76.0793 47.4184V47.507C76.0793 47.7679 76.0793 48.0305 76.0713 48.2915H76.0489V48.4123C76.0489 48.3704 76.0489 48.3302 76.0409 48.2883C75.7206 48.2367 75.4916 47.9661 75.2529 47.7502C75.0143 47.5344 74.6411 47.3282 74.3496 47.4941C74.21 47.5893 74.0992 47.7214 74.0293 47.8759L73.5537 48.72C73.5516 48.6312 73.5306 48.5438 73.4922 48.4638C73.4538 48.3838 73.3989 48.313 73.3311 48.2561C72.8972 48.447 72.5296 48.7633 72.2749 49.1649C72.0203 49.5665 71.8901 50.0351 71.9009 50.5113C71.4633 50.2355 71.0972 49.859 70.8329 49.4128C70.5687 48.9666 70.4137 48.4635 70.381 47.9451C70.3531 48.5239 70.4793 49.0997 70.7465 49.6131C71.0137 50.1265 71.4121 50.5589 71.9009 50.8657C71.8905 50.3896 72.0209 49.9211 72.2755 49.5196C72.5301 49.1181 72.8975 48.8017 73.3311 48.6105C73.3988 48.6678 73.4536 48.739 73.492 48.8192C73.5304 48.8995 73.5514 48.987 73.5537 49.076L74.0245 48.2319C74.0944 48.0774 74.2052 47.9453 74.3448 47.8501C74.6363 47.689 74.9999 47.8791 75.2481 48.1062C75.4964 48.3334 75.7382 48.6153 76.0713 48.6523C76.0713 48.2399 76.0756 47.8286 76.0841 47.4184C76.1627 46.988 76.3261 46.5778 76.5646 46.2118Z" fill="black"/>
<path opacity="0.1" d="M76.0233 47.8342C76.0314 47.7246 76.0443 47.6151 76.0605 47.512L76.0783 47.0674C76.0297 47.3199 76.0112 47.5773 76.0233 47.8342Z" fill="black"/>
<path opacity="0.1" d="M80.8824 49.7556C80.4452 49.9908 79.8878 49.7943 79.5163 49.4657C79.1447 49.137 78.8933 48.694 78.5649 48.3203C78.5407 48.3879 78.5373 48.4614 78.5553 48.531C78.5733 48.6006 78.6119 48.663 78.6658 48.7102C78.6338 48.7102 78.6034 48.694 78.5729 48.686C78.8933 49.0565 79.1479 49.4915 79.5163 49.8136C79.8846 50.1358 80.4452 50.3388 80.8824 50.1036C81.3196 49.8684 81.4445 49.3175 81.4061 48.781C81.3773 49.2031 81.2267 49.5688 80.8824 49.7556Z" fill="black"/>
<path opacity="0.1" d="M78.5634 48.6829C78.0278 48.536 77.5496 48.2281 77.193 47.8002C76.8363 47.3724 76.6182 46.8451 76.5678 46.2891C76.4765 47.5536 77.4247 48.8214 78.6659 49.0646C78.613 49.0185 78.575 48.9575 78.5568 48.8895C78.5385 48.8215 78.5408 48.7495 78.5634 48.6829Z" fill="black"/>
</g>
<path d="M155.477 75.0119C155.477 75.0119 154.846 74.9233 154.846 74.0003C154.846 73.0772 154.394 71.3487 154.394 71.3487C154.394 71.3487 154.003 68.3412 153.464 67.8643C152.924 67.3875 152.23 64.5877 152.23 64.5877C152.23 64.5877 152.112 63.0687 151.87 62.7417C151.628 62.4146 151.302 61.614 150.819 60.4719C150.337 59.3298 148.332 58.5469 148.332 58.5469C148.332 58.5469 144.698 56.4269 143.668 55.7358C143.574 55.6786 143.486 55.6116 143.406 55.5361C143.226 55.3009 142.445 55.2961 142.445 55.2961C142.363 54.7757 142.285 54.1797 142.259 53.6401C142.259 53.5821 142.259 53.5241 142.259 53.4661C143.407 52.7833 144.272 51.7069 144.695 50.4344C144.714 50.3731 144.73 50.3103 144.748 50.2475C144.818 50.2257 144.883 50.1891 144.938 50.1403C144.993 50.0914 145.038 50.0313 145.068 49.964C145.16 49.7562 145.163 49.5145 145.278 49.3196C145.413 49.0909 145.669 48.9684 145.871 48.7977C146.38 48.3611 146.511 47.6282 146.487 46.9629C146.471 46.4216 146.385 45.8771 146.418 45.3407C146.418 45.2956 146.418 45.2505 146.428 45.2054C146.438 45.1264 146.449 45.0443 146.463 44.967C146.542 44.5675 146.713 44.1905 146.809 43.7942C146.905 43.3979 146.915 42.9517 146.691 42.6102C146.362 42.1092 145.678 42.0093 145.078 41.9658C144.397 41.9078 143.797 41.982 143.353 41.4133C143.149 41.1163 142.92 40.8381 142.667 40.5821C142.578 40.4983 141.707 39.9619 141.707 39.928C140.854 39.5294 139.887 39.4544 138.984 39.717C138.531 39.8491 138.106 40.065 137.647 40.1729C136.66 40.4081 135.523 40.1536 134.684 40.7222C134.216 41.0444 133.936 41.5583 133.673 42.0561C133.46 42.4663 133.243 42.8771 133.023 43.2884C132.667 43.9634 132.309 44.6496 132.16 45.3971C132.128 45.5603 132.109 45.7256 132.1 45.8916C132.1 45.9512 132.1 46.0108 132.1 46.0704C132.1 46.0962 132.1 46.122 132.1 46.1477C132.1 46.2025 132.1 46.2573 132.11 46.3088C132.12 46.3604 132.11 46.3749 132.121 46.4087C132.132 46.4425 132.136 46.5183 132.145 46.5698C132.155 46.6213 132.174 46.7132 132.193 46.7824C132.193 46.813 132.212 46.842 132.222 46.8726C132.232 46.9033 132.257 46.9806 132.278 47.0337C132.299 47.0869 132.301 47.0901 132.313 47.1175C132.337 47.1739 132.366 47.2287 132.395 47.2786C132.408 47.2995 132.417 47.3205 132.43 47.3414C132.474 47.4168 132.523 47.489 132.578 47.5573C132.919 47.9874 133.425 48.2612 133.798 48.664C133.798 48.6801 133.798 48.6962 133.798 48.7123C133.798 48.7558 133.798 48.7993 133.798 48.8444C133.821 49.7426 134.062 50.6217 134.499 51.405C134.937 52.1883 135.558 52.8522 136.309 53.3388C136.309 53.4 136.317 53.4629 136.32 53.5257C136.352 54.0033 136.346 54.4827 136.303 54.9594C136.238 54.8823 136.156 54.8209 136.064 54.7796C135.972 54.7384 135.872 54.7183 135.771 54.721C135.702 54.7175 135.633 54.7235 135.566 54.7387L135.552 54.7274V54.7419C135.199 54.8289 134.765 55.1978 134.351 56.2465C134.351 56.2465 133.089 57.677 132.128 57.6174C131.167 57.5578 128.734 59.1075 128.734 59.1075C128.734 59.1075 126.36 60.6555 125.851 62.2342C125.566 63.1296 125.225 64.0056 124.828 64.8568L121.886 70.9331L121.346 75.7658C121.346 75.7658 121.645 77.9099 121.586 78.2385C121.527 78.5672 122.818 81.5151 122.818 81.5151C122.818 81.5151 127.083 89.0509 128.825 89.4375L128.95 89.3505C129.025 89.3886 129.104 89.4178 129.186 89.4375L129.544 89.1846C129.566 89.4678 129.557 89.7526 129.515 90.0336C129.277 90.7794 129.607 95.6347 130.026 96.5867C130.446 97.5388 130.297 110.023 130.297 110.023L130.238 111.124C130.238 111.124 130.238 111.159 130.252 111.22L130.238 111.481L130.281 111.504C130.326 111.854 130.311 112.209 130.238 112.554C130.087 113.037 130.026 114.402 130.026 114.402C130.026 114.402 128.825 122.115 129.395 123.664C129.965 125.214 130.448 126.912 130.448 126.912C130.448 126.912 131.048 128.845 130.476 129.167C129.905 129.489 128.285 130.061 128.615 130.865C128.92 131.609 130.074 133.604 130.246 133.895L130.231 134.056L129.996 136.622C130.034 136.961 130.125 137.292 130.267 137.602C130.524 138.163 131.024 138.741 131.979 138.678C132.139 138.667 132.323 138.649 132.504 138.625C134.248 138.388 136.394 137.605 136.394 137.605C136.283 137.534 136.181 137.449 136.091 137.352C136.006 137.269 135.938 137.169 135.892 137.058C135.846 136.947 135.823 136.828 135.824 136.708C135.85 136.239 134.98 134.014 134.762 133.465L134.713 133.343C134.713 133.343 136.695 131.257 136.365 129.41C136.365 129.41 134.171 128.122 134.894 127.413C135.616 126.704 136.907 124.674 136.907 124.674C136.907 124.674 136.966 117.079 136.907 115.947C136.845 115.159 136.882 114.367 137.017 113.588C137.041 113.472 137.07 113.358 137.1 113.243C138.1 113.395 139.11 113.472 140.121 113.474C140.49 113.474 140.864 113.466 141.242 113.451C141.242 113.559 141.247 113.675 141.257 113.799C141.34 115.681 141.495 118.982 141.622 120.207C141.801 121.963 142.792 126.701 142.792 126.701C142.792 126.701 140.901 127.92 143.122 130.931C143.122 130.931 143.122 132.02 142.975 132.18C142.818 132.696 142.691 133.222 142.595 133.753C142.503 134.319 142.464 134.894 142.615 135.19C142.975 135.902 145.137 135.844 145.137 135.844C145.154 135.84 145.172 135.838 145.19 135.836C145.598 135.793 146.011 135.832 146.404 135.951C146.797 136.07 147.162 136.266 147.479 136.529C148.3 137.193 151.417 136.903 153.106 136.69C153.768 136.605 154.21 136.529 154.21 136.529C154.231 136.454 154.239 136.375 154.232 136.297C154.215 135.88 153.89 134.965 151.686 134.148C151.686 134.148 149.613 132.747 149.642 131.526H149.596H149.357C149.508 131.521 149.613 131.521 149.613 131.521C149.613 131.521 148.801 128.542 149.133 128.299C149.465 128.056 148.472 124.755 148.472 124.755C148.472 124.755 147.903 119.213 147.871 118.827C147.873 118.494 147.924 118.163 148.021 117.844L147.871 114.804C147.871 114.804 147.842 113.794 147.871 113.466C147.868 113.181 147.845 112.896 147.804 112.614C147.789 112.501 147.775 112.383 147.759 112.267C148.536 112.069 149.04 111.887 149.04 111.887L148.95 101.312C149.61 100.023 149.732 97.194 149.729 95.1901C149.729 93.9013 149.671 92.9477 149.671 92.9477L150.573 91.4673C150.573 91.4673 150.781 89.6953 150.451 89.3071C150.305 89.1315 150.371 88.9494 150.491 88.7996C150.554 88.7475 150.621 88.7001 150.691 88.6579C150.683 88.6466 150.676 88.6348 150.67 88.6224C150.733 88.5695 150.8 88.5216 150.871 88.4791C150.871 88.4791 150.55 87.9797 150.837 87.7687C151.106 87.9523 151.346 88.0989 151.529 88.2036C151.516 88.3212 151.503 88.3888 151.503 88.3888L151.58 88.2278C151.756 88.3276 151.864 88.3888 151.864 88.3888C151.864 88.3888 153.276 85.5585 153.246 85.1429C153.215 84.7273 154.207 82.9682 154.207 82.9682C154.207 82.9682 154.327 82.0435 154.868 81.6569C155.41 81.2703 155.288 78.4689 155.288 78.4689C155.288 78.4689 155.438 77.0094 155.799 76.415C156.159 75.8206 155.477 75.0119 155.477 75.0119ZM128.449 73.7699L128.476 74.4449C128.316 74.1855 128.201 74.0003 128.201 74.0003L128.449 73.7699Z" fill="url(#paint1_linear_1017_38895)"/>
<path d="M151.947 87.1642L151.601 88.6462C151.601 88.6462 148.83 87.2206 148.332 85.4164C147.834 83.6122 149.167 82.9243 149.167 82.9243L151.75 84.023L151.947 87.1642Z" fill="white"/>
<path opacity="0.1" d="M151.947 87.1642L151.601 88.6462C151.601 88.6462 148.83 87.2206 148.332 85.4164C147.834 83.6122 149.167 82.9243 149.167 82.9243L151.75 84.023L151.947 87.1642Z" fill="black"/>
<path d="M136.397 137.603C136.397 137.603 133.835 138.55 132.073 138.67C131.138 138.732 130.646 138.156 130.393 137.6C130.256 137.293 130.166 136.967 130.127 136.633L130.359 134.08L130.481 132.722L134.224 131.743L134.754 133.375L134.804 133.497C135.015 134.043 135.87 136.256 135.845 136.719C135.843 136.838 135.865 136.957 135.91 137.068C135.955 137.179 136.021 137.279 136.106 137.363C136.193 137.455 136.29 137.536 136.397 137.603Z" fill="white"/>
<path d="M153.893 136.305C153.899 136.383 153.892 136.462 153.87 136.537C153.87 136.537 148.39 137.455 147.269 136.537C146.954 136.269 146.586 136.07 146.19 135.952C145.794 135.835 145.378 135.802 144.969 135.856C144.969 135.856 142.848 135.914 142.495 135.211C142.347 134.917 142.386 134.345 142.477 133.783C142.57 133.254 142.694 132.731 142.848 132.217L142.933 132.149L143.438 131.742L149.344 131.566H149.389C149.36 132.781 151.393 134.174 151.393 134.174C153.556 134.979 153.875 135.89 153.893 136.305Z" fill="white"/>
<path opacity="0.1" d="M153.894 136.305C153.9 136.383 153.892 136.462 153.87 136.537C153.87 136.537 148.39 137.455 147.27 136.537C146.955 136.269 146.587 136.069 146.191 135.952C145.795 135.835 145.379 135.802 144.969 135.856C144.969 135.856 142.847 135.914 142.493 135.211C142.347 134.916 142.384 134.345 142.475 133.781C143.292 133.863 144.581 134.067 145.087 134.557C145.853 135.298 147.15 136.039 147.945 136.099C148.572 136.137 152.306 136.257 153.894 136.305Z" fill="black"/>
<path opacity="0.1" d="M136.397 137.603C136.397 137.603 133.835 138.551 132.073 138.67C131.138 138.733 130.646 138.156 130.393 137.6C131.047 137.821 131.951 138.051 132.427 137.84C132.991 137.587 134.99 137.426 136.111 137.357C136.195 137.451 136.292 137.534 136.397 137.603Z" fill="black"/>
<path d="M140.199 61.2642C138.085 60.4378 135.366 57.7073 136.045 56.4315C136.195 56.1093 136.285 55.7619 136.309 55.407C136.353 54.9249 136.359 54.4402 136.328 53.9571C136.281 53.1655 136.186 52.3774 136.045 51.5972C136.045 51.5972 142.645 51.747 142.261 52.7248C142.149 53.0132 142.129 53.5109 142.161 54.0667C142.193 54.6224 142.272 55.2555 142.355 55.7887C142.469 56.5185 142.586 57.0775 142.586 57.0775C142.586 57.0775 142.181 57.6461 141.945 57.6767C141.71 57.7073 143.233 62.4482 140.199 61.2642Z" fill="#CF6F80"/>
<path opacity="0.1" d="M134.797 133.489L134.748 133.544C132.775 131.144 130.388 134.137 130.388 134.137L130.353 134.072L130.475 132.714L134.218 131.735L134.748 133.367L134.797 133.489Z" fill="black"/>
<path opacity="0.1" d="M149.392 131.735C149.392 131.735 147.951 131.706 147.182 132.389C146.414 133.072 142.698 132.535 142.858 132.389C142.905 132.314 142.933 132.23 142.941 132.142L143.446 131.735L149.352 131.559C149.375 131.672 149.392 131.735 149.392 131.735Z" fill="black"/>
<path d="M137.253 112.886C137.145 113.153 137.064 113.429 137.009 113.712C136.876 114.486 136.838 115.274 136.899 116.058C136.958 117.185 136.899 124.742 136.899 124.742C136.899 124.742 135.632 126.757 134.924 127.468C134.216 128.178 136.365 129.454 136.365 129.454C136.686 131.292 134.745 133.367 134.745 133.367C132.771 130.966 130.385 133.958 130.385 133.958C130.385 133.958 129.088 131.703 128.764 130.897C128.441 130.092 130.031 129.536 130.59 129.207C131.149 128.879 130.561 126.952 130.561 126.952C130.561 126.952 130.09 125.262 129.53 123.721C128.969 122.179 130.148 114.506 130.148 114.506C130.148 114.506 130.209 113.142 130.355 112.667C130.427 112.324 130.442 111.971 130.398 111.623C130.388 111.505 130.377 111.408 130.369 111.341C130.361 111.273 130.355 111.244 130.355 111.244L130.377 111.205L131.178 109.704C131.178 109.704 137.637 111.94 137.253 112.886Z" fill="#1E5156"/>
<path d="M149.392 131.558C149.392 131.558 147.951 131.527 147.182 132.202C146.414 132.877 142.698 132.35 142.858 132.202C143.018 132.054 143.004 130.958 143.004 130.958C140.824 127.964 142.683 126.749 142.683 126.749C142.683 126.749 141.711 122.037 141.535 120.289C141.412 119.07 141.26 115.779 141.178 113.915C141.143 113.11 141.122 112.554 141.122 112.554L142.887 112.201L143.116 112.156L147.411 111.288C147.411 111.288 147.53 112.093 147.61 112.752C147.65 113.033 147.672 113.317 147.676 113.601C147.648 113.923 147.676 114.933 147.676 114.933L147.823 117.955C147.728 118.272 147.678 118.602 147.676 118.933C147.706 119.32 148.265 124.83 148.265 124.83C148.265 124.83 149.237 128.12 148.906 128.357C148.574 128.594 149.392 131.558 149.392 131.558Z" fill="#1E5156"/>
<path opacity="0.1" d="M142.261 52.7297C142.149 53.018 142.129 53.5158 142.161 54.0716C141.277 54.607 140.261 54.8808 139.229 54.8614C138.197 54.842 137.192 54.5303 136.328 53.962C136.281 53.1704 136.186 52.3823 136.045 51.6021C136.045 51.6021 142.645 51.7519 142.261 52.7297Z" fill="black"/>
<path d="M144.809 49.1727C144.826 50.6342 144.266 52.0429 143.25 53.0888C142.235 54.1347 140.849 54.7321 139.395 54.7496C137.942 54.7671 136.542 54.2033 135.502 53.1822C134.462 52.1611 133.868 50.7663 133.851 49.3048C133.851 49.2597 133.851 49.2178 133.851 49.1727C133.851 47.7107 134.428 46.3085 135.456 45.2747C136.484 44.2409 137.878 43.6602 139.331 43.6602C140.785 43.6602 142.179 44.2409 143.207 45.2747C144.235 46.3085 144.812 47.7107 144.812 49.1727H144.809Z" fill="#CF6F80"/>
<path opacity="0.1" d="M140.199 61.2645C138.085 60.4381 135.366 57.7076 136.045 56.4318C136.195 56.1095 136.285 55.7622 136.309 55.4072L139.203 57.801L140.994 59.2782L142.355 55.7938C142.469 56.5236 142.586 57.0826 142.586 57.0826C142.586 57.0826 142.181 57.6512 141.945 57.6818C141.71 57.7124 143.233 62.4485 140.199 61.2645Z" fill="black"/>
<path d="M147.684 71.843L145.267 112.679L142.115 112.887L133.952 89.2085L135.291 61.0966L135.574 55.1572L139.203 58.1551L140.994 59.6323L142.395 56.0448L145.001 58.3291L147.684 71.843Z" fill="#1E5156"/>
<path opacity="0.1" d="M137.253 112.885C137.145 113.152 137.064 113.429 137.009 113.712C134.713 113.356 132.484 112.656 130.395 111.635L130.351 111.613L130.366 111.353V111.218L131.167 109.717C131.167 109.717 137.637 111.94 137.253 112.885Z" fill="black"/>
<path opacity="0.1" d="M142.94 113.719C142.353 113.819 141.762 113.888 141.168 113.923C141.133 113.118 141.112 112.562 141.112 112.562L142.887 112.201L142.94 113.719Z" fill="black"/>
<path opacity="0.1" d="M147.616 112.752C146.478 113.05 144.717 113.385 143.145 113.176L143.122 112.156L147.418 111.288C147.418 111.288 147.531 112.087 147.616 112.752Z" fill="black"/>
<path opacity="0.1" d="M143.116 113.362C136.55 114.49 130.536 111.257 130.536 111.257L130.593 110.162C130.593 110.162 130.742 97.7431 130.329 96.7911C129.916 95.839 129.594 91.0176 129.828 90.2814C130.062 89.5452 128.974 78.43 128.974 78.43L128.798 73.9195L122.345 71.2824L125.228 65.2367C125.617 64.3893 125.952 63.5176 126.231 62.627C126.732 61.0564 129.059 59.5148 129.059 59.5148C129.059 59.5148 131.445 57.9748 132.389 58.0328C133.332 58.0907 134.568 56.6699 134.568 56.6699C135.481 54.3293 136.308 55.3812 136.308 55.3812C136.308 55.494 136.308 55.3812 136.263 55.7276C135.943 58.2969 141.442 66.4159 141.521 66.5609L142.051 79.3933L142.581 95.6328L143.116 113.362Z" fill="black"/>
<path d="M142.94 113.362C136.373 114.49 130.358 111.257 130.358 111.257L130.417 110.162C130.417 110.162 130.564 97.7431 130.151 96.7911C129.738 95.839 129.416 91.0128 129.652 90.2701C129.887 89.5275 128.793 78.4236 128.793 78.4236L128.615 73.913L122.164 71.276L125.047 65.2303C125.435 64.383 125.77 63.5119 126.05 62.6222C126.551 61.0564 128.886 59.5132 128.886 59.5132C128.886 59.5132 131.272 57.9732 132.214 58.0311C133.156 58.0891 134.399 56.6699 134.399 56.6699C135.313 54.3293 136.32 55.3812 136.32 55.3812C136.32 55.494 136.224 55.5423 136.276 55.7276C136.98 58.2196 141.279 66.4159 141.357 66.5609L141.888 79.3933L142.406 95.6409L142.94 113.362Z" fill="white"/>
<path opacity="0.1" d="M141.17 66.9232C140.464 66.6268 136.722 62.3305 136.722 62.3305V61.3527C136.586 61.0305 135.776 61.2271 135.121 61.4526L135.403 55.5132L135.723 55.7806C136.423 58.271 141.093 66.7798 141.17 66.9232Z" fill="black"/>
<path d="M141.348 66.5688C140.64 66.2708 136.899 61.9761 136.899 61.9761V60.9967C136.762 60.6745 135.954 60.871 135.297 61.0965L135.574 55.1636L135.894 55.4294C136.601 57.9166 141.269 66.4238 141.348 66.5688Z" fill="white"/>
<path opacity="0.1" d="M130.536 87.9941C130.624 87.9941 135.102 87.5205 135.102 87.5205C135.102 87.5205 137.813 92.8848 137.635 94.188C137.458 95.4913 137.136 96.6479 136.045 96.4433C134.954 96.2387 130.175 96.6044 130.175 96.6044L130.536 87.9941Z" fill="black"/>
<path d="M130.358 87.6382C130.448 87.6382 134.926 87.1646 134.926 87.1646C134.926 87.1646 137.635 92.5369 137.459 93.8256C137.283 95.1143 136.958 96.2855 135.869 96.0809C134.78 95.8763 129.997 96.242 129.997 96.242L130.358 87.6382Z" fill="white"/>
<path d="M133.732 85.1265C133.732 85.1265 137.842 87.3495 137.93 88.0261C138.018 88.7027 135.838 87.7297 135.368 87.6105C135.057 87.5364 134.742 87.4868 134.424 87.4623L131.284 87.5476L133.732 85.1265Z" fill="#CF6F80"/>
<path opacity="0.1" d="M140.022 67.2005C140.261 67.2005 140.454 67.0057 140.454 66.7655C140.454 66.5253 140.261 66.3306 140.022 66.3306C139.783 66.3306 139.589 66.5253 139.589 66.7655C139.589 67.0057 139.783 67.2005 140.022 67.2005Z" fill="black"/>
<path d="M140.022 67.0232C140.261 67.0232 140.454 66.8285 140.454 66.5883C140.454 66.348 140.261 66.1533 140.022 66.1533C139.783 66.1533 139.589 66.348 139.589 66.5883C139.589 66.8285 139.783 67.0232 140.022 67.0232Z" fill="#3F3D56"/>
<path opacity="0.1" d="M140.818 86.0286C141.057 86.0286 141.25 85.8338 141.25 85.5936C141.25 85.3534 141.057 85.1587 140.818 85.1587C140.579 85.1587 140.385 85.3534 140.385 85.5936C140.385 85.8338 140.579 86.0286 140.818 86.0286Z" fill="black"/>
<path d="M140.818 85.8499C141.057 85.8499 141.25 85.6551 141.25 85.4149C141.25 85.1747 141.057 84.98 140.818 84.98C140.579 84.98 140.385 85.1747 140.385 85.4149C140.385 85.6551 140.579 85.8499 140.818 85.8499Z" fill="#3F3D56"/>
<path opacity="0.1" d="M140.454 76.6145C140.693 76.6145 140.887 76.4198 140.887 76.1796C140.887 75.9394 140.693 75.7446 140.454 75.7446C140.215 75.7446 140.022 75.9394 140.022 76.1796C140.022 76.4198 140.215 76.6145 140.454 76.6145Z" fill="black"/>
<path d="M140.454 76.4372C140.693 76.4372 140.887 76.2425 140.887 76.0023C140.887 75.7621 140.693 75.5674 140.454 75.5674C140.215 75.5674 140.022 75.7621 140.022 76.0023C140.022 76.2425 140.215 76.4372 140.454 76.4372Z" fill="#3F3D56"/>
<path d="M150.422 87.3722C150.422 87.3722 150.717 87.8168 150.422 88.0165C150.128 88.2163 150.451 88.7285 150.451 88.7285C150.451 88.7285 149.716 89.1603 150.039 89.5517C150.363 89.9432 150.158 91.7007 150.158 91.7007L149.274 93.1811C149.274 93.1811 149.327 94.1299 149.33 95.4122C149.33 97.4129 149.213 100.226 148.566 101.508L148.652 112.029C148.652 112.029 145.557 113.168 142.965 112.82L142.581 95.9373C142.581 95.9373 143.142 86.3638 143.348 84.5273C143.469 83.5739 143.518 82.6127 143.495 81.6519C143.495 81.6519 143.407 78.778 143.111 77.4458C143.111 77.4458 142.791 71.6659 142.759 70.0662C142.744 69.3011 142.784 67.0683 142.829 64.9452C142.879 62.6239 142.935 60.4346 142.935 60.4346L142.35 55.7807C142.35 55.7807 142.935 55.7227 143.111 55.9579C143.19 56.0321 143.276 56.0984 143.367 56.1561C144.378 56.8423 147.943 58.9526 147.943 58.9526C147.943 58.9526 149.916 59.742 150.389 60.8728C150.861 62.0037 151.189 62.8059 151.418 63.1281C151.647 63.4503 151.772 64.9645 151.772 64.9645C151.772 64.9645 152.451 67.7514 152.981 68.2234C153.512 68.6954 153.893 71.6916 153.893 71.6916L149.208 75.3967C149.208 75.3967 148.797 81.56 148.709 81.7984C148.62 82.0369 150.422 87.3722 150.422 87.3722Z" fill="white"/>
<path d="M150.6 87.372C150.6 87.372 150.893 87.8166 150.6 88.0164C150.307 88.2161 150.627 88.7284 150.627 88.7284C150.627 88.7284 149.892 89.1601 150.216 89.5516C150.539 89.943 150.334 91.7005 150.334 91.7005L149.453 93.1809C149.453 93.1809 149.506 94.1298 149.511 95.412C149.511 97.4128 149.394 100.225 148.747 101.508L148.835 112.029C148.835 112.029 145.739 113.167 143.148 112.819L142.765 95.9372C142.765 95.9372 143.324 86.3636 143.532 84.5272C143.653 83.5738 143.702 82.6125 143.678 81.6517C143.678 81.6517 143.59 78.7779 143.295 77.4456C143.295 77.4456 142.975 71.6657 142.941 70.0661C142.927 69.3009 142.967 67.0682 143.012 64.945C143.061 62.6237 143.118 60.4345 143.118 60.4345L142.346 55.7178C142.346 55.7178 143.118 55.7178 143.295 55.9578C143.373 56.0328 143.459 56.0992 143.552 56.1559C144.561 56.8422 148.126 58.9525 148.126 58.9525C148.126 58.9525 150.094 59.7418 150.574 60.8727C151.055 62.0035 151.375 62.8057 151.604 63.1279C151.833 63.4501 151.958 64.9644 151.958 64.9644C151.958 64.9644 152.637 67.7512 153.167 68.2232C153.697 68.6952 154.08 71.6915 154.08 71.6915L149.396 75.3966C149.396 75.3966 148.984 81.5599 148.894 81.7983C148.805 82.0367 150.6 87.372 150.6 87.372Z" fill="white"/>
<path opacity="0.1" d="M144.99 61.8022L145.414 63.0426L143.186 65.2979C143.236 62.9766 143.292 60.7874 143.292 60.7874L142.52 56.0723C142.52 56.0723 143.292 56.0723 143.47 56.3123C143.548 56.3873 143.634 56.4537 143.726 56.5104L145.619 62.002L144.99 61.8022Z" fill="black"/>
<path d="M144.809 61.4461L145.233 62.6849L143.007 64.9401C143.055 62.6188 143.113 60.4296 143.113 60.4296L142.339 55.7129C142.339 55.7129 143.113 55.7129 143.289 55.9529C143.367 56.0275 143.453 56.0939 143.545 56.1511L145.449 61.6475L144.809 61.4461Z" fill="white"/>
<path opacity="0.1" d="M144.809 49.1727C144.809 49.7531 144.719 50.33 144.54 50.8818C144.51 50.8869 144.479 50.8858 144.449 50.8786C144.419 50.8714 144.391 50.8583 144.367 50.84C144.323 49.3901 143.616 48.0273 142.743 46.8691C142.497 46.5197 142.2 46.2101 141.862 45.9509C141.519 45.6923 141.094 45.5712 140.667 45.611C140.187 45.677 139.762 46.0056 139.277 46.0475C138.636 46.1007 138.063 45.6545 137.427 45.6335C137.169 45.6357 136.914 45.6934 136.679 45.8029C136.445 45.9124 136.236 46.071 136.067 46.2682C135.733 46.6648 135.485 47.1274 135.339 47.6262C135.087 48.3831 134.95 49.1737 134.932 49.9717C134.924 50.4227 134.881 50.9882 134.464 51.1525C134.496 50.821 134.458 50.4865 134.354 50.1704C134.251 49.8542 134.082 49.5633 133.861 49.316L133.851 49.3048C133.851 49.2597 133.851 49.2178 133.851 49.1727C133.851 47.7107 134.428 46.3085 135.456 45.2747C136.484 44.2409 137.878 43.6602 139.331 43.6602C140.785 43.6602 142.179 44.2409 143.207 45.2747C144.235 46.3085 144.812 47.7107 144.812 49.1727H144.809Z" fill="black"/>
<path d="M141.606 40.4206C140.773 40.0268 139.827 39.9523 138.944 40.2111C138.5 40.3432 138.082 40.5575 137.632 40.6654C136.671 40.899 135.55 40.6461 134.725 41.2115C134.267 41.5337 133.992 42.0427 133.736 42.5389L133.095 43.7648C132.746 44.4365 132.393 45.1196 132.248 45.859C132.102 46.5984 132.19 47.4264 132.656 48.0224C132.994 48.4541 133.497 48.7264 133.865 49.1339C134.087 49.3824 134.254 49.6743 134.358 49.9912C134.462 50.3081 134.499 50.6431 134.467 50.9752C134.884 50.8141 134.926 50.2455 134.935 49.7944C134.953 48.9965 135.09 48.2058 135.342 47.4489C135.488 46.9501 135.736 46.4876 136.071 46.0909C136.239 45.8935 136.448 45.7346 136.682 45.6249C136.917 45.5151 137.172 45.4571 137.43 45.4546C138.071 45.4772 138.646 45.9234 139.28 45.8686C139.761 45.8284 140.187 45.4997 140.67 45.4337C141.097 45.3931 141.523 45.5143 141.865 45.7736C142.204 46.032 142.5 46.3418 142.744 46.6918C143.619 47.8517 144.328 49.208 144.37 50.6627C144.551 50.7948 144.812 50.6208 144.902 50.4146C144.991 50.2084 144.995 49.9668 145.108 49.7702C145.24 49.5431 145.491 49.4207 145.688 49.2499C146.188 48.8166 146.313 48.0868 146.293 47.4248C146.274 46.7627 146.146 46.0909 146.271 45.4401C146.346 45.0422 146.516 44.6669 146.609 44.2722C146.702 43.8776 146.713 43.4346 146.494 43.0947C146.173 42.5969 145.499 42.497 144.911 42.4503C144.243 42.3923 143.646 42.4664 143.22 41.901C143.02 41.6063 142.794 41.3293 142.547 41.073C142.459 40.9876 141.606 40.456 141.606 40.4206Z" fill="#512E4E"/>
<path opacity="0.1" d="M124.193 74.3914L122.521 71.2808L121.991 76.0813C121.991 76.0813 122.286 78.2141 122.227 78.5411C122.167 78.8681 123.434 81.8 123.434 81.8C123.434 81.8 127.619 89.2987 129.328 89.6837L135.094 85.534L133.563 83.5784C133.563 83.5784 133.032 83.3706 132.9 83.5784C132.9 83.5784 130.055 78.6587 129.762 78.3043C129.469 77.9499 129.525 77.2363 129.525 77.2363C129.525 77.2363 129.083 76.7627 129.23 76.3181C129.378 75.8734 128.385 74.3334 128.385 74.3334L129.298 73.4748L124.193 74.3914Z" fill="black"/>
<path d="M122.61 70.9248L122.167 71.2808L121.637 76.0813C121.637 76.0813 121.932 78.2141 121.873 78.5412C121.814 78.8682 123.082 81.8 123.082 81.8C123.082 81.8 127.265 89.2988 128.974 89.6838L134.749 85.5341L133.217 83.5785C133.217 83.5785 132.687 83.3706 132.554 83.5785C132.554 83.5785 129.711 78.6588 129.416 78.3044C129.121 77.95 129.181 77.2363 129.181 77.2363C129.181 77.2363 128.739 76.7627 128.886 76.3181C129.033 75.8735 128.031 74.3335 128.031 74.3335L128.944 73.4749L122.61 70.9248Z" fill="white"/>
<path opacity="0.1" d="M150.039 89.737C150.36 90.1285 150.158 91.8876 150.158 91.8876L149.274 93.3583C149.274 93.3583 149.327 94.3088 149.33 95.5911L147.844 96.0582C147.709 96.1004 147.567 96.1096 147.428 96.0851C147.289 96.0606 147.158 96.0031 147.046 95.9173C146.934 95.8316 146.843 95.7201 146.783 95.5922C146.722 95.4642 146.693 95.3236 146.697 95.1819L146.955 86.8696L150.422 88.2018C150.128 88.408 150.451 88.9139 150.451 88.9139C150.451 88.9139 149.716 89.3456 150.039 89.737Z" fill="black"/>
<path d="M150.216 89.5599C150.536 89.9498 150.334 91.7089 150.334 91.7089L149.453 93.1812C149.453 93.1812 149.506 94.1301 149.511 95.4123L147.997 95.8875C147.866 95.929 147.727 95.9382 147.591 95.9144C147.455 95.8906 147.327 95.8345 147.218 95.7508C147.108 95.6671 147.02 95.5582 146.96 95.4331C146.901 95.3081 146.872 95.1706 146.876 95.0322L147.134 86.6909L150.6 88.0264C150.304 88.2325 150.627 88.7384 150.627 88.7384C150.627 88.7384 149.892 89.1685 150.216 89.5599Z" fill="white"/>
<path d="M151.366 85.5935C151.366 85.5935 151.13 87.1062 150.541 87.1948C149.951 87.2834 149.687 89.6418 149.099 89.5596C148.512 89.4774 148.901 87.3655 148.922 86.9564C148.942 86.5472 148.281 84.8525 148.774 84.4675C149.268 84.0825 150.837 84.4675 150.837 84.4675L151.366 85.5935Z" fill="#CF6F80"/>
<path opacity="0.1" d="M152.612 73.9467L153.721 71.6914C153.721 71.6914 154.165 73.4102 154.165 74.3285C154.165 75.2467 154.783 75.3369 154.783 75.3369C154.783 75.3369 155.461 76.1423 155.104 76.7303C154.746 77.3183 154.604 78.7745 154.604 78.7745C154.604 78.7745 154.721 81.5598 154.191 81.9448C153.661 82.3298 153.542 83.2496 153.542 83.2496C153.542 83.2496 152.57 84.9975 152.6 85.4131C152.631 85.8287 151.245 88.6429 151.245 88.6429C151.245 88.6429 151.923 85.1457 147.975 83.6346C147.975 83.6346 147.945 82.449 148.239 82.1236C148.534 81.7982 148.994 81.6403 148.705 80.0037C148.417 78.367 148.622 76.3936 148.622 75.999C148.622 75.6043 149.506 73.1444 149.506 73.1444L152.612 73.9467Z" fill="black"/>
<path d="M153.105 71.3696L154.075 71.6918C154.075 71.6918 154.519 73.4106 154.519 74.3289C154.519 75.2471 155.137 75.3373 155.137 75.3373C155.137 75.3373 155.815 76.1427 155.458 76.7307C155.1 77.3187 154.956 78.775 154.956 78.775C154.956 78.775 155.075 81.5602 154.545 81.9452C154.015 82.3302 153.904 83.25 153.904 83.25C153.904 83.25 152.932 84.9979 152.962 85.4135C152.993 85.8291 151.606 88.6433 151.606 88.6433C151.606 88.6433 152.283 85.1461 148.335 83.635C148.335 83.635 148.307 82.4494 148.601 82.124C148.896 81.7986 149.356 81.6407 149.067 80.0041C148.779 78.3674 148.984 76.394 148.984 75.9994C148.984 75.6047 149.868 73.1448 149.868 73.1448L153.105 71.3696Z" fill="white"/>
<path opacity="0.1" d="M131.663 129.824C131.663 129.824 133.21 128.847 134.226 129.557C135.241 130.267 131.663 129.824 131.663 129.824Z" fill="black"/>
<path opacity="0.1" d="M143.688 126.801C143.688 126.801 145.057 126.623 146.207 127.869C147.357 129.114 143.688 126.801 143.688 126.801Z" fill="black"/>
<g opacity="0.1">
<path opacity="0.1" d="M145.688 48.8955C145.491 49.0679 145.238 49.1887 145.107 49.4158C144.994 49.6107 144.991 49.8524 144.902 50.0602C144.812 50.268 144.551 50.4403 144.368 50.3082C144.327 48.8584 143.617 47.4972 142.744 46.3374C142.5 45.9878 142.204 45.6786 141.865 45.4208C141.522 45.161 141.096 45.0392 140.669 45.0793C140.188 45.1453 139.765 45.4739 139.28 45.5158C138.639 45.569 138.065 45.1228 137.429 45.1018C137.17 45.1038 136.915 45.1615 136.681 45.2709C136.447 45.3804 136.239 45.5392 136.071 45.7365C135.736 46.1331 135.488 46.5957 135.342 47.0945C135.09 47.8514 134.953 48.6421 134.935 49.44C134.925 49.8894 134.884 50.45 134.471 50.6175C134.48 50.7371 134.48 50.8572 134.471 50.9768C134.889 50.8157 134.93 50.247 134.94 49.796C134.958 48.9981 135.095 48.2074 135.347 47.4505C135.493 46.9517 135.741 46.4892 136.075 46.0925C136.244 45.8952 136.452 45.7364 136.686 45.6267C136.92 45.5169 137.175 45.4588 137.434 45.4562C138.074 45.4788 138.651 45.925 139.285 45.8702C139.765 45.8299 140.191 45.5013 140.673 45.4353C141.1 45.3947 141.527 45.516 141.87 45.7752C142.208 46.0336 142.505 46.3434 142.749 46.6934C143.622 47.8532 144.331 49.2096 144.373 50.6643C144.556 50.7964 144.817 50.6224 144.906 50.4162C144.996 50.21 144.999 49.9683 145.111 49.7718C145.243 49.5447 145.496 49.4222 145.693 49.2515C146.192 48.8182 146.317 48.0884 146.298 47.4263C146.298 47.4054 146.298 47.3861 146.298 47.3651C146.266 47.9418 146.114 48.5266 145.688 48.8955Z" fill="black"/>
<path opacity="0.1" d="M133.864 48.7829C133.497 48.3753 132.994 48.1015 132.656 47.6698C132.371 47.2887 132.208 46.8288 132.19 46.3521C132.14 46.9482 132.305 47.5426 132.656 48.0258C132.994 48.4575 133.497 48.7297 133.864 49.1373C134.218 49.5357 134.431 50.0411 134.469 50.5742C134.493 50.25 134.452 49.9243 134.348 49.6165C134.244 49.3087 134.079 49.0252 133.864 48.7829Z" fill="black"/>
<path opacity="0.1" d="M146.609 43.9178C146.514 44.3125 146.346 44.6878 146.269 45.0857C146.223 45.3548 146.207 45.6281 146.22 45.9009C146.225 45.7468 146.242 45.5933 146.269 45.4418C146.346 45.0439 146.514 44.6685 146.609 44.2738C146.663 44.056 146.681 43.8306 146.662 43.6069C146.651 43.7117 146.634 43.8156 146.609 43.9178Z" fill="black"/>
</g>
<path opacity="0.1" d="M21.7575 135.135C30.3763 135.135 37.3632 134.007 37.3632 132.614C37.3632 131.222 30.3763 130.093 21.7575 130.093C13.1388 130.093 6.15192 131.222 6.15192 132.614C6.15192 134.007 13.1388 135.135 21.7575 135.135Z" fill="#1E5156"/>
<path d="M22.2604 84.3179H21.2563V107.059H22.2604V84.3179Z" fill="#535461"/>
<path d="M28.5722 106.991L28.5081 108.016L28.42 109.466L28.3832 110.068L28.2935 111.518L28.2551 112.121L28.167 113.57L27.1532 130.013C27.11 130.72 26.8001 131.385 26.2867 131.87C25.7733 132.356 25.0952 132.626 24.3905 132.626H19.1262C18.4196 132.626 17.7396 132.354 17.2259 131.866C16.7121 131.378 16.4036 130.711 16.3635 130.002L15.3497 113.559L15.2616 112.109L15.2248 111.507L15.1335 110.057L15.0966 109.455L15.0085 108.005L14.9445 106.98C14.9334 106.784 14.9622 106.587 15.029 106.402C15.0959 106.218 15.1994 106.048 15.3334 105.905C15.4673 105.762 15.6288 105.647 15.8081 105.569C15.9874 105.49 16.1807 105.449 16.3763 105.448H27.142C27.3384 105.449 27.5325 105.491 27.7124 105.57C27.8923 105.649 28.0542 105.765 28.1881 105.909C28.3221 106.054 28.4252 106.225 28.4913 106.411C28.5573 106.597 28.5848 106.794 28.5722 106.991Z" fill="#3F3D56"/>
<path d="M28.5081 108.014L28.4184 109.461H15.0966L15.007 108.014H28.5081Z" fill="#9D9CB5"/>
<path d="M28.3816 110.063L28.2935 111.51H15.2232L15.1335 110.063H28.3816Z" fill="#9D9CB5"/>
<path d="M28.2551 112.114L28.167 113.559H15.3497L15.26 112.114H28.2551Z" fill="#9D9CB5"/>
<path d="M13.4807 92.8426C19.3296 97.0986 21.7656 103.755 21.7656 103.755C21.7656 103.755 14.7187 103.512 8.86818 99.2556C3.01767 94.9996 0.578491 88.3481 0.578491 88.3481C0.578491 88.3481 7.62537 88.5866 13.4807 92.8426Z" fill="#1E5156"/>
<path d="M0.578491 88.3481C0.578491 88.3481 7.89282 92.4318 10.2391 95.8131C12.5854 99.1943 21.7591 103.758 21.7591 103.758" stroke="#535461" stroke-width="2" stroke-miterlimit="10"/>
<path d="M17.2491 84.2694C20.433 86.5842 21.7591 90.2072 21.7591 90.2072C21.7591 90.2072 17.9154 90.0751 14.7395 87.7602C11.5636 85.4453 10.2295 81.8208 10.2295 81.8208C10.2295 81.8208 14.0668 81.9529 17.2491 84.2694Z" fill="#1E5156"/>
<path d="M10.2295 81.8208C10.2295 81.8208 14.211 84.0439 15.489 85.8835C16.7671 87.7232 21.7591 90.2072 21.7591 90.2072" stroke="#535461" stroke-width="2" stroke-miterlimit="10"/>
<path d="M26.3845 90.0235C22.7281 94.0653 21.9545 99.3474 21.9545 99.3474C21.9545 99.3474 27.11 98.0748 30.7631 94.0314C34.4163 89.9881 35.193 84.7075 35.193 84.7075C35.193 84.7075 30.0408 85.9817 26.3845 90.0235Z" fill="#1E5156"/>
<path d="M35.1962 84.7095C35.1962 84.7095 30.4332 88.8527 29.2224 91.7072C28.0116 94.5618 21.9545 99.3478 21.9545 99.3478" stroke="#535461" stroke-width="2" stroke-miterlimit="10"/>
</g>
<defs>
<linearGradient id="paint0_linear_1017_38895" x1="75.0575" y1="134.601" x2="75.0575" y2="41.5468" gradientUnits="userSpaceOnUse">
<stop stop-color="#808080" stop-opacity="0.25"/>
<stop offset="0.54" stop-color="#808080" stop-opacity="0.12"/>
<stop offset="1" stop-color="#808080" stop-opacity="0.1"/>
</linearGradient>
<linearGradient id="paint1_linear_1017_38895" x1="30474.9" y1="87206.4" x2="30474.9" y2="26214.1" gradientUnits="userSpaceOnUse">
<stop stop-color="#808080" stop-opacity="0.25"/>
<stop offset="0.54" stop-color="#808080" stop-opacity="0.12"/>
<stop offset="1" stop-color="#808080" stop-opacity="0.1"/>
</linearGradient>
<clipPath id="clip0_1017_38895">
<rect width="187" height="139" fill="white" transform="translate(0.5)"/>
</clipPath>
</defs>
</svg>
