<svg width="142" height="141" viewBox="0 0 142 141" fill="none" xmlns="http://www.w3.org/2000/svg">
<path d="M71 141C109.936 141 141.5 109.436 141.5 70.5C141.5 31.5639 109.936 0 71 0C32.0639 0 0.5 31.5639 0.5 70.5C0.5 109.436 32.0639 141 71 141Z" fill="#44BE9D"/>
<path d="M85.8367 139.336C87.1878 139.073 88.5309 138.771 89.8643 138.43C92.1261 137.799 94.3549 137.056 96.5425 136.204C98.7348 135.355 100.883 134.398 102.98 133.335C105.076 132.267 107.117 131.095 109.096 129.824C111.071 128.554 112.982 127.187 114.822 125.727C116.665 124.264 118.435 122.709 120.123 121.069C121.806 119.432 123.407 117.713 124.919 115.917C126.435 114.118 127.859 112.246 129.188 110.305C130.515 108.368 131.744 106.365 132.871 104.304C133.998 102.241 135.02 100.124 135.935 97.9587C136.852 95.7935 137.66 93.5838 138.356 91.3379C138.951 89.3721 139.461 87.3813 139.882 85.3711L97.9998 43.4888C90.5311 36.0199 80.7779 32.2896 71.0115 32.2896C61.2446 32.2896 51.4692 36.0193 44.0003 43.4888C29.0626 58.4265 29.0626 82.562 44.0003 97.4998L85.8367 139.336Z" fill="#37A285"/>
<path d="M71.0053 32.2947C80.7722 32.2947 90.5362 36.025 98.0051 43.4939C112.943 58.4317 112.943 82.5671 98.0051 97.5049C83.0673 112.443 58.9318 112.443 43.9941 97.5049C29.0563 82.5671 29.0563 58.4317 43.9941 43.4939C51.4629 36.025 61.2384 32.2947 71.0053 32.2947ZM88.4008 58.7437C87.8444 58.7946 87.3039 59.0084 86.8632 59.3518L65.4057 75.4507L55.4572 65.5022C53.2989 63.2543 49.0555 67.4977 51.3034 69.656L63.0534 81.406C64.0414 82.3923 65.767 82.5163 66.8859 81.6814L90.3859 64.0564C92.3638 62.6168 91.1452 58.7786 88.6992 58.7436C88.5998 58.7386 88.5002 58.7386 88.4008 58.7436L88.4008 58.7437Z" fill="white"/>
</svg>
