<svg width="25" height="19" viewBox="0 0 25 19" fill="none" xmlns="http://www.w3.org/2000/svg">
<path d="M15.1562 11.4688C15.1562 8.30208 15.9167 5.82292 17.4375 4.03125C18.9792 2.23958 21.1354 1.0625 23.9062 0.5V3.75C21.8021 4.39583 20.3854 5.5625 19.6562 7.25C19.2396 8.14583 19.0729 9.01042 19.1562 9.84375H24.0625V18.0625H15.1562V11.4688ZM0.34375 11.4688C0.34375 8.34375 1.08333 5.875 2.5625 4.0625C4.0625 2.25 6.23958 1.0625 9.09375 0.5V3.75C6.96875 4.41667 5.54167 5.5625 4.8125 7.1875C4.4375 8.04167 4.28125 8.92708 4.34375 9.84375H9.25V18.0625H0.34375V11.4688Z" fill="#7F4433"/>
</svg>
