<svg width="20" height="20" viewBox="0 0 20 20" fill="none" xmlns="http://www.w3.org/2000/svg">
<path d="M18.1716 8.36788H17.5003V8.33329H10.0003V11.6666H14.7099C14.0228 13.607 12.1766 15 10.0003 15C7.23908 15 5.00033 12.7612 5.00033 9.99996C5.00033 7.23871 7.23908 4.99996 10.0003 4.99996C11.2749 4.99996 12.4345 5.48079 13.3174 6.26621L15.6745 3.90913C14.1862 2.52204 12.1953 1.66663 10.0003 1.66663C5.39824 1.66663 1.66699 5.39788 1.66699 9.99996C1.66699 14.602 5.39824 18.3333 10.0003 18.3333C14.6024 18.3333 18.3337 14.602 18.3337 9.99996C18.3337 9.44121 18.2762 8.89579 18.1716 8.36788Z" fill="#FFC107"/>
<path d="M2.62793 6.12121L5.36585 8.12913C6.10668 6.29496 7.90085 4.99996 10.0004 4.99996C11.275 4.99996 12.4346 5.48079 13.3175 6.26621L15.6746 3.90913C14.1863 2.52204 12.1954 1.66663 10.0004 1.66663C6.7996 1.66663 4.02376 3.47371 2.62793 6.12121Z" fill="#FF3D00"/>
<path d="M9.9998 18.3333C12.1523 18.3333 14.1081 17.5096 15.5869 16.17L13.0077 13.9875C12.1429 14.6451 11.0862 15.0008 9.9998 15C7.8323 15 5.99189 13.6179 5.29855 11.6891L2.58105 13.7829C3.96022 16.4816 6.76105 18.3333 9.9998 18.3333Z" fill="#4CAF50"/>
<path d="M18.1713 8.36796H17.5V8.33337H10V11.6667H14.7096C14.3809 12.5902 13.7889 13.3972 13.0067 13.988L13.0079 13.9871L15.5871 16.1696C15.4046 16.3355 18.3333 14.1667 18.3333 10C18.3333 9.44129 18.2758 8.89587 18.1713 8.36796Z" fill="#1976D2"/>
</svg>
