<svg width="21" height="20" viewBox="0 0 21 20" fill="none" xmlns="http://www.w3.org/2000/svg">
<g clip-path="url(#clip0_3561_85189)">
<path d="M5.69828 10.1335L10.5 10.0002" stroke="white" stroke-width="2" stroke-linecap="round" stroke-linejoin="round"/>
<path d="M18.6622 10.1336L4.22545 16.91C4.14318 16.9406 4.05387 16.9469 3.96812 16.9282C3.88237 16.9094 3.8038 16.8665 3.74175 16.8045C3.67969 16.7424 3.63675 16.6638 3.61804 16.5781C3.59933 16.4923 3.60563 16.403 3.63619 16.3208L5.69859 10.1336L3.63619 3.94638C3.60563 3.86411 3.59933 3.7748 3.61804 3.68905C3.63675 3.60331 3.67969 3.52474 3.74175 3.46268C3.8038 3.40062 3.88237 3.35769 3.96812 3.33898C4.05386 3.32026 4.14318 3.32656 4.22545 3.35713L18.6622 10.1336Z" stroke="white" stroke-width="2" stroke-linecap="round" stroke-linejoin="round"/>
</g>
<defs>
<clipPath id="clip0_3561_85189">
<rect width="20" height="20" fill="white" transform="translate(0.5)"/>
</clipPath>
</defs>
</svg>
