<svg width="16" height="16" viewBox="0 0 16 16" fill="none" xmlns="http://www.w3.org/2000/svg">
<path d="M7.99961 14L5.59961 11.6H3.99961C3.36309 11.6 2.75264 11.3471 2.30255 10.8971C1.85247 10.447 1.59961 9.83652 1.59961 9.2V4.4C1.59961 3.76348 1.85247 3.15303 2.30255 2.70294C2.75264 2.25286 3.36309 2 3.99961 2H11.9996C12.6361 2 13.2466 2.25286 13.6967 2.70294C14.1468 3.15303 14.3996 3.76348 14.3996 4.4V9.2C14.3996 9.83652 14.1468 10.447 13.6967 10.8971C13.2466 11.3471 12.6361 11.6 11.9996 11.6H10.3996L7.99961 14Z" stroke="#3772FF" stroke-width="2" stroke-linecap="round" stroke-linejoin="round"/>
<path d="M4.7998 5.20312H11.1998" stroke="#3772FF" stroke-width="2" stroke-linecap="round" stroke-linejoin="round"/>
<path d="M4.7998 8.39844H9.5998" stroke="#3772FF" stroke-width="2" stroke-linecap="round" stroke-linejoin="round"/>
</svg>
