<svg width="26" height="26" viewBox="0 0 26 26" fill="none" xmlns="http://www.w3.org/2000/svg">
<path d="M13 14.0837C13.5983 14.0837 14.0833 13.5986 14.0833 13.0003C14.0833 12.402 13.5983 11.917 13 11.917C12.4017 11.917 11.9167 12.402 11.9167 13.0003C11.9167 13.5986 12.4017 14.0837 13 14.0837Z" stroke="#7F4433" stroke-width="2" stroke-linecap="round" stroke-linejoin="round"/>
<path d="M13 21.6667C13.5983 21.6667 14.0833 21.1816 14.0833 20.5833C14.0833 19.985 13.5983 19.5 13 19.5C12.4017 19.5 11.9167 19.985 11.9167 20.5833C11.9167 21.1816 12.4017 21.6667 13 21.6667Z" stroke="#7F4433" stroke-width="2" stroke-linecap="round" stroke-linejoin="round"/>
<path d="M13 6.49967C13.5983 6.49967 14.0833 6.01465 14.0833 5.41634C14.0833 4.81803 13.5983 4.33301 13 4.33301C12.4017 4.33301 11.9167 4.81803 11.9167 5.41634C11.9167 6.01465 12.4017 6.49967 13 6.49967Z" stroke="#7F4433" stroke-width="2" stroke-linecap="round" stroke-linejoin="round"/>
</svg>
