<svg width="26" height="26" viewBox="0 0 26 26" fill="none" xmlns="http://www.w3.org/2000/svg">
<path fill-rule="evenodd" clip-rule="evenodd" d="M11.3566 21.8163C11.9177 22.4414 12.6382 22.7848 13.3857 22.7848H13.3867C14.1375 22.7848 14.8612 22.4414 15.4234 21.8152C15.7246 21.4827 16.2381 21.4556 16.5707 21.7557C16.9043 22.0557 16.9314 22.5703 16.6313 22.9029C15.756 23.8747 14.6044 24.4098 13.3867 24.4098H13.3846C12.1702 24.4087 11.0207 23.8736 10.1487 22.9018C9.84858 22.5692 9.87566 22.0547 10.2093 21.7557C10.543 21.4545 11.0565 21.4816 11.3566 21.8163ZM13.4396 1.11816C18.255 1.11816 21.4899 4.86866 21.4899 8.37108C21.4899 10.1727 21.9481 10.9364 22.4345 11.7467C22.9155 12.5462 23.4604 13.4541 23.4604 15.1701C23.0824 19.5543 18.5053 19.9118 13.4396 19.9118C8.37394 19.9118 3.79578 19.5543 3.42201 15.2394C3.41878 13.4541 3.96369 12.5462 4.44469 11.7467L4.6145 11.4609C5.03259 10.7423 5.38936 9.96071 5.38936 8.37108C5.38936 4.86866 8.62419 1.11816 13.4396 1.11816ZM13.4396 2.74316C9.65336 2.74316 7.01436 5.70933 7.01436 8.37108C7.01436 10.6233 6.38928 11.6644 5.83678 12.5831C5.39369 13.3208 5.04378 13.9037 5.04378 15.1701C5.22469 17.2132 6.57344 18.2868 13.4396 18.2868C20.2679 18.2868 21.6589 17.1656 21.8387 15.0997C21.8354 13.9037 21.4855 13.3208 21.0424 12.5831C20.4899 11.6644 19.8649 10.6233 19.8649 8.37108C19.8649 5.70933 17.2259 2.74316 13.4396 2.74316Z" fill="#7F4433"/>
<circle cx="19.5" cy="6.5" r="3.75" fill="#FF6550" stroke="white"/>
</svg>
