<svg width="21" height="20" viewBox="0 0 21 20" fill="none" xmlns="http://www.w3.org/2000/svg">
<g clip-path="url(#clip0_2502_135337)">
<path d="M5.69751 10.1316L10.4992 9.99825" stroke="white" stroke-width="2" stroke-linecap="round" stroke-linejoin="round"/>
<path d="M18.6619 10.1316L4.22512 16.9081C4.14286 16.9386 4.05354 16.9449 3.9678 16.9262C3.88205 16.9075 3.80348 16.8646 3.74142 16.8025C3.67936 16.7404 3.63643 16.6619 3.61772 16.5761C3.59901 16.4904 3.60531 16.4011 3.63587 16.3188L5.69826 10.1316L3.63587 3.94443C3.60531 3.86216 3.59901 3.77285 3.61772 3.6871C3.63643 3.60136 3.67936 3.52278 3.74142 3.46073C3.80348 3.39867 3.88205 3.35573 3.9678 3.33702C4.05354 3.31831 4.14286 3.32461 4.22512 3.35517L18.6619 10.1316Z" stroke="white" stroke-width="2" stroke-linecap="round" stroke-linejoin="round"/>
</g>
<defs>
<clipPath id="clip0_2502_135337">
<rect width="20" height="20" fill="white" transform="translate(0.5)"/>
</clipPath>
</defs>
</svg>
