<svg width="24" height="24" viewBox="0 0 24 24" fill="none" xmlns="http://www.w3.org/2000/svg">
<g opacity="0.5">
<path fill-rule="evenodd" clip-rule="evenodd" d="M11.9929 1C12.3735 1 12.7211 1.2161 12.8896 1.55744L15.7428 7.33878L22.1223 8.26334C22.4992 8.31796 22.8123 8.58192 22.93 8.94414C23.0476 9.30635 22.9493 9.70394 22.6764 9.96957L18.0534 14.4695L19.1435 20.8239C19.2079 21.1993 19.0535 21.5786 18.7453 21.8023C18.4371 22.026 18.0286 22.0552 17.6917 21.8777L11.9993 18.8781L6.29323 21.8781C5.95631 22.0553 5.54803 22.0258 5.24008 21.802C4.93213 21.5783 4.7779 21.1991 4.84226 20.8239L5.9323 14.4695L1.30935 9.96957C1.03646 9.70394 0.938133 9.30635 1.05576 8.94414C1.17338 8.58192 1.48654 8.31796 1.86344 8.26334L8.2429 7.33878L11.0961 1.55744C11.2646 1.2161 11.6122 1 11.9929 1ZM11.9929 4.25957L9.8036 8.69556C9.65788 8.99083 9.37615 9.19543 9.05029 9.24266L4.15827 9.95165L7.70438 13.4034C7.94041 13.6332 8.04816 13.9644 7.99247 14.2891L7.15607 19.1649L11.5345 16.8629C11.8261 16.7096 12.1746 16.7097 12.4661 16.8633L16.8293 19.1625L15.9933 14.2891C15.9376 13.9644 16.0453 13.6332 16.2814 13.4034L19.8275 9.95165L14.9354 9.24266C14.6096 9.19543 14.3278 8.99083 14.1821 8.69556L11.9929 4.25957Z" fill="#25324B"/>
</g>
</svg>
