<svg width="20" height="20" viewBox="0 0 20 20" fill="none" xmlns="http://www.w3.org/2000/svg">
<path d="M12.5 8.33221L16.2942 6.43554C16.4212 6.37207 16.5623 6.34211 16.7042 6.3485C16.846 6.35489 16.9839 6.39742 17.1047 6.47205C17.2255 6.54668 17.3252 6.65094 17.3944 6.77494C17.4636 6.89893 17.4999 7.03855 17.5 7.18054V12.8172C17.4999 12.9592 17.4636 13.0988 17.3944 13.2228C17.3252 13.3468 17.2255 13.4511 17.1047 13.5257C16.9839 13.6003 16.846 13.6429 16.7042 13.6493C16.5623 13.6556 16.4212 13.6257 16.2942 13.5622L12.5 11.6655V8.33221Z" stroke="#3772FF" stroke-width="2" stroke-linecap="round" stroke-linejoin="round"/>
<path d="M10.8333 5H4.16667C3.24619 5 2.5 5.74619 2.5 6.66667V13.3333C2.5 14.2538 3.24619 15 4.16667 15H10.8333C11.7538 15 12.5 14.2538 12.5 13.3333V6.66667C12.5 5.74619 11.7538 5 10.8333 5Z" stroke="#3772FF" stroke-width="2" stroke-linecap="round" stroke-linejoin="round"/>
</svg>
