<svg width="20" height="21" viewBox="0 0 20 21" fill="none" xmlns="http://www.w3.org/2000/svg">
<path d="M12.5 8.83221L16.2942 6.93554C16.4212 6.87207 16.5623 6.84211 16.7042 6.8485C16.846 6.85489 16.9839 6.89742 17.1047 6.97205C17.2255 7.04668 17.3252 7.15094 17.3944 7.27494C17.4636 7.39893 17.4999 7.53855 17.5 7.68054V13.3172C17.4999 13.4592 17.4636 13.5988 17.3944 13.7228C17.3252 13.8468 17.2255 13.9511 17.1047 14.0257C16.9839 14.1003 16.846 14.1429 16.7042 14.1493C16.5623 14.1556 16.4212 14.1257 16.2942 14.0622L12.5 12.1655V8.83221Z" stroke="white" stroke-width="2" stroke-linecap="round" stroke-linejoin="round"/>
<path d="M10.8333 5.5H4.16667C3.24619 5.5 2.5 6.24619 2.5 7.16667V13.8333C2.5 14.7538 3.24619 15.5 4.16667 15.5H10.8333C11.7538 15.5 12.5 14.7538 12.5 13.8333V7.16667C12.5 6.24619 11.7538 5.5 10.8333 5.5Z" stroke="white" stroke-width="2" stroke-linecap="round" stroke-linejoin="round"/>
</svg>
