<svg width="38" height="38" viewBox="0 0 38 38" fill="none" xmlns="http://www.w3.org/2000/svg">
<path d="M14.2497 6.3335H7.91634C7.04189 6.3335 6.33301 7.04238 6.33301 7.91683V14.2502C6.33301 15.1246 7.04189 15.8335 7.91634 15.8335H14.2497C15.1241 15.8335 15.833 15.1246 15.833 14.2502V7.91683C15.833 7.04238 15.1241 6.3335 14.2497 6.3335Z" stroke="#4CAF50" stroke-width="2" stroke-linecap="round" stroke-linejoin="round"/>
<path d="M30.0837 6.3335H23.7503C22.8759 6.3335 22.167 7.04238 22.167 7.91683V14.2502C22.167 15.1246 22.8759 15.8335 23.7503 15.8335H30.0837C30.9581 15.8335 31.667 15.1246 31.667 14.2502V7.91683C31.667 7.04238 30.9581 6.3335 30.0837 6.3335Z" stroke="#4CAF50" stroke-opacity="0.3" stroke-width="2" stroke-linecap="round" stroke-linejoin="round"/>
<path d="M14.2497 22.1665H7.91634C7.04189 22.1665 6.33301 22.8754 6.33301 23.7498V30.0832C6.33301 30.9576 7.04189 31.6665 7.91634 31.6665H14.2497C15.1241 31.6665 15.833 30.9576 15.833 30.0832V23.7498C15.833 22.8754 15.1241 22.1665 14.2497 22.1665Z" stroke="#4CAF50" stroke-opacity="0.4" stroke-width="2" stroke-linecap="round" stroke-linejoin="round"/>
<path d="M30.0837 22.1665H23.7503C22.8759 22.1665 22.167 22.8754 22.167 23.7498V30.0832C22.167 30.9576 22.8759 31.6665 23.7503 31.6665H30.0837C30.9581 31.6665 31.667 30.9576 31.667 30.0832V23.7498C31.667 22.8754 30.9581 22.1665 30.0837 22.1665Z" stroke="#4CAF50" stroke-width="2" stroke-linecap="round" stroke-linejoin="round"/>
</svg>
