<svg width="38" height="38" viewBox="0 0 38 38" fill="none" xmlns="http://www.w3.org/2000/svg">
<path d="M9.5 6.3335H7.91667C7.07681 6.3335 6.27136 6.66713 5.67749 7.26099C5.08363 7.85486 4.75 8.66031 4.75 9.50016V15.0418C4.75 17.3514 5.66748 19.5664 7.30061 21.1996C8.93374 22.8327 11.1487 23.7502 13.4583 23.7502C15.7679 23.7502 17.9829 22.8327 19.6161 21.1996C21.2492 19.5664 22.1667 17.3514 22.1667 15.0418V9.50016C22.1667 8.66031 21.833 7.85486 21.2392 7.26099C20.6453 6.66713 19.8399 6.3335 19 6.3335H17.4167" stroke="#FF6745" stroke-width="3" stroke-linecap="round" stroke-linejoin="round"/>
<path d="M12.667 23.75C12.667 24.9976 12.9127 26.2329 13.3901 27.3855C13.8676 28.5381 14.5673 29.5854 15.4495 30.4675C16.3316 31.3497 17.3789 32.0494 18.5315 32.5269C19.6841 33.0043 20.9194 33.25 22.167 33.25C23.4146 33.25 24.6499 33.0043 25.8025 32.5269C26.9551 32.0494 28.0024 31.3497 28.8845 30.4675C29.7667 29.5854 30.4664 28.5381 30.9438 27.3855C31.4213 26.2329 31.667 24.9976 31.667 23.75V19" stroke="#FF6745" stroke-width="3" stroke-linecap="round" stroke-linejoin="round"/>
<path d="M17.417 4.75V7.91667" stroke="#FF6745" stroke-width="3" stroke-linecap="round" stroke-linejoin="round"/>
<path d="M9.5 4.75V7.91667" stroke="#FF6745" stroke-width="3" stroke-linecap="round" stroke-linejoin="round"/>
<path d="M31.6667 18.9998C33.4156 18.9998 34.8333 17.5821 34.8333 15.8332C34.8333 14.0843 33.4156 12.6665 31.6667 12.6665C29.9178 12.6665 28.5 14.0843 28.5 15.8332C28.5 17.5821 29.9178 18.9998 31.6667 18.9998Z" stroke="#FF6745" stroke-width="3" stroke-linecap="round" stroke-linejoin="round"/>
</svg>
