<svg width="34" height="33" viewBox="0 0 34 33" fill="none" xmlns="http://www.w3.org/2000/svg">
<path d="M23.833 17.5832C28.7255 13.134 33.333 8.96984 33.333 5.3915C33.333 2.46234 31.0372 0.166504 28.108 0.166504C26.4613 0.166504 24.8622 0.942337 23.833 2.14567C22.788 0.942337 21.2047 0.166504 19.558 0.166504C16.6288 0.166504 14.333 2.46234 14.333 5.3915C14.333 8.96984 18.9405 13.134 23.833 17.5832ZM19.558 3.33317C20.2547 3.33317 20.9672 3.66567 21.4263 4.204L23.833 7.03817L26.2397 4.204C26.6988 3.66567 27.4113 3.33317 28.108 3.33317C29.2797 3.33317 30.1663 4.21984 30.1663 5.3915C30.1663 7.16484 26.9363 10.4107 23.833 13.2923C20.7297 10.4107 17.4997 7.149 17.4997 5.3915C17.4997 4.21984 18.3863 3.33317 19.558 3.33317Z" fill="#11747D"/>
<path d="M28.583 22.3332H25.4163C25.4163 20.4332 24.2288 18.7232 22.4555 18.0582L12.7022 14.4165H0.0830078V31.8332H9.58301V29.5532L20.6663 32.6248L33.333 28.6665V27.0832C33.333 24.4548 31.2113 22.3332 28.583 22.3332ZM3.24967 28.6665V17.5832H6.41634V28.6665H3.24967ZM20.6188 29.3157L9.58301 26.2598V17.5832H12.1322L21.3472 21.019C21.8855 21.2248 22.2497 21.7473 22.2497 22.3332C22.2497 22.3332 19.0988 22.254 18.608 22.0957L14.8397 20.8448L13.8422 23.8532L17.6105 25.104C18.418 25.3732 19.2572 25.5157 20.1122 25.5157H28.583C29.2005 25.5157 29.7547 25.8798 30.008 26.4023L20.6188 29.3157Z" fill="#11747D"/>
</svg>
