<svg width="39" height="38" viewBox="0 0 39 38" fill="none" xmlns="http://www.w3.org/2000/svg">
<path d="M21.0837 30.0835H17.917V34.8335H21.0837V30.0835Z" fill="#0235DD"/>
<path d="M8.41699 17.4165H3.66699V20.5832H8.41699V17.4165Z" fill="#0235DD"/>
<path d="M35.334 17.4165H30.584V20.5832H35.334V17.4165Z" fill="#0235DD"/>
<path d="M27.894 25.9576L25.666 28.1855L29.0247 31.5443L31.2527 29.3163L27.894 25.9576Z" fill="#0235DD"/>
<path d="M11.1175 25.9465L7.75879 29.3052L9.98674 31.5331L13.3455 28.1744L11.1175 25.9465Z" fill="#0235DD"/>
<path d="M24.2507 12.6983V4.75H14.7507V12.6983C12.8348 14.155 11.584 16.4192 11.584 19C11.584 23.37 15.1307 26.9167 19.5007 26.9167C23.8707 26.9167 27.4173 23.37 27.4173 19C27.4173 16.4192 26.1665 14.155 24.2507 12.6983ZM17.9173 7.91667H21.084V11.2417C20.5773 11.1467 20.039 11.0833 19.5007 11.0833C18.9623 11.0833 18.424 11.1467 17.9173 11.2417V7.91667ZM19.5007 23.75C16.8882 23.75 14.7507 21.6125 14.7507 19C14.7507 16.3875 16.8882 14.25 19.5007 14.25C22.1132 14.25 24.2507 16.3875 24.2507 19C24.2507 21.6125 22.1132 23.75 19.5007 23.75Z" fill="#0235DD"/>
</svg>
